<svg xmlns="http://www.w3.org/2000/svg" xmlns:xlink="http://www.w3.org/1999/xlink" viewBox="0 0 489.36 576.5"><defs><style>.cls-1{isolation:isolate;}.cls-2{opacity:0.45;fill:url(#linear-gradient);}.cls-100,.cls-101,.cls-102,.cls-2,.cls-48,.cls-85,.cls-86,.cls-87,.cls-88,.cls-89,.cls-90,.cls-91,.cls-92,.cls-93,.cls-94,.cls-95,.cls-96,.cls-97,.cls-98,.cls-99{mix-blend-mode:screen;}.cls-3,.cls-4,.cls-5,.cls-6,.cls-7{opacity:0.7;}.cls-3,.cls-4,.cls-5,.cls-6,.cls-7,.cls-8,.cls-9{mix-blend-mode:color-dodge;}.cls-3{fill:url(#linear-gradient-2);}.cls-4{fill:url(#linear-gradient-3);}.cls-5{fill:url(#linear-gradient-4);}.cls-6{fill:url(#linear-gradient-5);}.cls-7{fill:url(#linear-gradient-6);}.cls-71,.cls-8,.cls-9{fill:#1ed6fe;}.cls-100,.cls-101,.cls-102,.cls-54,.cls-8,.cls-85,.cls-86,.cls-87,.cls-88,.cls-89,.cls-90,.cls-91,.cls-92,.cls-93,.cls-94,.cls-95,.cls-96,.cls-97,.cls-98,.cls-99{opacity:0.3;}.cls-10{fill:#00258a;opacity:0.4;}.cls-11{fill:url(#linear-gradient-7);}.cls-12{fill:url(#linear-gradient-8);}.cls-13{fill:#231f20;}.cls-13,.cls-50,.cls-51,.cls-54,.cls-55,.cls-56{fill-rule:evenodd;}.cls-14{fill:#505254;}.cls-15{fill:url(#linear-gradient-9);}.cls-16{fill:url(#linear-gradient-10);}.cls-17{fill:url(#linear-gradient-11);}.cls-18{fill:url(#linear-gradient-12);}.cls-19{fill:#0a208f;}.cls-20{fill:url(#linear-gradient-13);}.cls-21{fill:url(#linear-gradient-14);}.cls-22{fill:url(#linear-gradient-15);}.cls-23{fill:url(#linear-gradient-16);}.cls-24{fill:#797a7d;}.cls-25{fill:url(#linear-gradient-17);}.cls-26{fill:url(#linear-gradient-18);}.cls-27{fill:url(#linear-gradient-19);}.cls-28{fill:url(#linear-gradient-20);}.cls-29{fill:url(#linear-gradient-21);}.cls-30{fill:url(#linear-gradient-22);}.cls-31{fill:#e1e8ec;}.cls-32{fill:#6392ad;}.cls-33{fill:#95c4df;}.cls-34{fill:#d4dbdf;}.cls-35{fill:url(#linear-gradient-23);}.cls-36{fill:url(#linear-gradient-24);}.cls-37{fill:url(#linear-gradient-25);}.cls-38{fill:#e8ebe8;}.cls-39{fill:url(#linear-gradient-26);}.cls-40,.cls-43{opacity:0.2;}.cls-40,.cls-43,.cls-49,.cls-54{mix-blend-mode:multiply;}.cls-41{fill:url(#linear-gradient-27);}.cls-42{fill:url(#linear-gradient-28);}.cls-43{fill:url(#linear-gradient-29);}.cls-44{fill:url(#linear-gradient-30);}.cls-45,.cls-53,.cls-74{fill:#fff;}.cls-45{opacity:0.61;}.cls-46{fill:url(#linear-gradient-31);}.cls-47{fill:#523602;}.cls-48{opacity:0.22;fill:url(#_2);}.cls-49{opacity:0.15;}.cls-50{fill:#ffcda8;}.cls-51{fill:#d9a782;}.cls-52{fill:#414e52;}.cls-53{opacity:0.5;}.cls-54{fill:#563317;}.cls-55{fill:#a08128;}.cls-56{fill:#856c24;}.cls-57{fill:url(#linear-gradient-32);}.cls-58{fill:url(#linear-gradient-33);}.cls-59{fill:url(#linear-gradient-34);}.cls-60{fill:url(#linear-gradient-35);}.cls-61{fill:url(#linear-gradient-36);}.cls-62{fill:url(#linear-gradient-37);}.cls-63{fill:url(#linear-gradient-38);}.cls-64{fill:#444343;}.cls-65{fill:url(#linear-gradient-39);}.cls-66{fill:#a9d0e5;}.cls-67{fill:#f07;}.cls-68{fill:#73bde5;}.cls-69{fill:#07b3fa;}.cls-70{fill:#097abe;}.cls-72{fill:url(#linear-gradient-40);}.cls-73{fill:url(#linear-gradient-41);}.cls-75{fill:url(#linear-gradient-42);}.cls-76{fill:url(#linear-gradient-43);}.cls-77{fill:url(#linear-gradient-44);}.cls-78{fill:url(#linear-gradient-45);}.cls-79{fill:url(#linear-gradient-46);}.cls-80{fill:url(#linear-gradient-47);}.cls-81{fill:url(#linear-gradient-48);}.cls-82{fill:url(#linear-gradient-49);}.cls-83{fill:url(#linear-gradient-50);}.cls-84{fill:url(#linear-gradient-51);}.cls-85{fill:url(#linear-gradient-52);}.cls-86{fill:url(#linear-gradient-53);}.cls-87{fill:url(#linear-gradient-54);}.cls-88{fill:url(#linear-gradient-55);}.cls-89{fill:url(#linear-gradient-56);}.cls-90{fill:url(#linear-gradient-57);}.cls-91{fill:url(#linear-gradient-58);}.cls-92{fill:url(#linear-gradient-59);}.cls-93{fill:url(#linear-gradient-60);}.cls-94{fill:url(#linear-gradient-61);}.cls-95{fill:url(#linear-gradient-62);}.cls-96{fill:url(#linear-gradient-63);}.cls-97{fill:url(#linear-gradient-64);}.cls-98{fill:url(#linear-gradient-65);}.cls-99{fill:url(#linear-gradient-66);}.cls-100{fill:url(#linear-gradient-67);}.cls-101{fill:url(#linear-gradient-68);}.cls-102{fill:url(#linear-gradient-69);}.cls-103{fill:url(#linear-gradient-70);}.cls-104{fill:url(#linear-gradient-71);}.cls-105{fill:url(#linear-gradient-72);}.cls-106{fill:url(#linear-gradient-73);}.cls-107{fill:url(#linear-gradient-74);}.cls-108{fill:url(#linear-gradient-75);}.cls-109{fill:url(#linear-gradient-76);}.cls-110{fill:url(#linear-gradient-77);}</style><linearGradient id="linear-gradient" x1="244.68" y1="3.32" x2="244.68" y2="593.37" gradientUnits="userSpaceOnUse"><stop offset="0"/><stop offset="1" stop-color="#4ceaf5"/></linearGradient><linearGradient id="linear-gradient-2" x1="17.04" y1="397.07" x2="17.04" y2="107.16" gradientUnits="userSpaceOnUse"><stop offset="0"/><stop offset="1" stop-color="#48d8f5"/></linearGradient><linearGradient id="linear-gradient-3" x1="124.99" y1="271.55" x2="124.99" y2="129.57" xlink:href="#linear-gradient-2"/><linearGradient id="linear-gradient-4" x1="454.78" y1="362.09" x2="454.78" y2="39.95" xlink:href="#linear-gradient-2"/><linearGradient id="linear-gradient-5" x1="471.95" y1="256.4" x2="471.95" y2="81.11" xlink:href="#linear-gradient-2"/><linearGradient id="linear-gradient-6" x1="57.58" y1="204.14" x2="57.58" y2="28.84" xlink:href="#linear-gradient-2"/><linearGradient id="linear-gradient-7" x1="327.26" y1="415.22" x2="335.48" y2="401.76" gradientUnits="userSpaceOnUse"><stop offset="0" stop-color="#328de0"/><stop offset="1" stop-color="#172d9c"/></linearGradient><linearGradient id="linear-gradient-8" x1="288.21" y1="556.55" x2="369.34" y2="315.51" xlink:href="#linear-gradient-7"/><linearGradient id="linear-gradient-9" x1="135.6" y1="493.42" x2="130.43" y2="502.38" xlink:href="#linear-gradient-7"/><linearGradient id="linear-gradient-10" x1="202.18" y1="489.23" x2="197.01" y2="498.2" xlink:href="#linear-gradient-7"/><linearGradient id="linear-gradient-11" x1="213.18" y1="449.25" x2="208.01" y2="458.21" xlink:href="#linear-gradient-7"/><linearGradient id="linear-gradient-12" x1="105.72" y1="459.47" x2="100.54" y2="468.44" xlink:href="#linear-gradient-7"/><linearGradient id="linear-gradient-13" x1="162.32" y1="469.2" x2="203.21" y2="469.2" xlink:href="#linear-gradient-7"/><linearGradient id="linear-gradient-14" x1="129.78" y1="471.82" x2="157.8" y2="471.82" xlink:href="#linear-gradient-7"/><linearGradient id="linear-gradient-15" x1="167.71" y1="446.33" x2="215.03" y2="446.33" xlink:href="#linear-gradient-7"/><linearGradient id="linear-gradient-16" x1="98.15" y1="452.09" x2="151.52" y2="452.09" xlink:href="#linear-gradient-7"/><linearGradient id="linear-gradient-17" x1="101.86" y1="405.84" x2="221.5" y2="405.84" xlink:href="#linear-gradient-7"/><linearGradient id="linear-gradient-18" x1="200.99" y1="398.84" x2="112.26" y2="436.21" xlink:href="#linear-gradient-7"/><linearGradient id="linear-gradient-19" x1="148.4" y1="378.49" x2="179.37" y2="426.73" xlink:href="#linear-gradient-7"/><linearGradient id="linear-gradient-20" x1="225.87" y1="276.14" x2="427.9" y2="650.61" xlink:href="#linear-gradient-7"/><linearGradient id="linear-gradient-21" x1="232.88" y1="478.39" x2="400.43" y2="297.83" gradientUnits="userSpaceOnUse"><stop offset="0" stop-color="#2580d3"/><stop offset="1" stop-color="#0a208f"/></linearGradient><linearGradient id="linear-gradient-22" x1="177.31" y1="457.05" x2="197.8" y2="303.17" xlink:href="#linear-gradient-21"/><linearGradient id="linear-gradient-23" x1="216.72" y1="258.38" x2="185.34" y2="308.96" xlink:href="#linear-gradient-21"/><linearGradient id="linear-gradient-24" x1="223.61" y1="262.66" x2="192.85" y2="312.25" xlink:href="#linear-gradient-7"/><linearGradient id="linear-gradient-25" x1="224" y1="262.1" x2="197.04" y2="308.43" gradientUnits="userSpaceOnUse"><stop offset="0" stop-color="#1873c6"/><stop offset="1" stop-color="#001382"/></linearGradient><linearGradient id="linear-gradient-26" x1="338.89" y1="339.08" x2="338.89" y2="325.59" gradientUnits="userSpaceOnUse"><stop offset="0" stop-color="#66c1ff"/><stop offset="1" stop-color="#d4dbdf"/></linearGradient><linearGradient id="linear-gradient-27" x1="336.64" y1="337.86" x2="336.64" y2="337.86" gradientUnits="userSpaceOnUse"><stop offset="0" stop-color="#dadada"/><stop offset="0.03" stop-color="#232323"/><stop offset="0.12" stop-color="#616161"/><stop offset="0.22" stop-color="#999"/><stop offset="0.31" stop-color="#c5c5c5"/><stop offset="0.39" stop-color="#e5e5e5"/><stop offset="0.45" stop-color="#f8f8f8"/><stop offset="0.5" stop-color="#fff"/><stop offset="0.9" stop-color="#c1c1c1"/><stop offset="1" stop-color="#8c8c8c"/></linearGradient><linearGradient id="linear-gradient-28" x1="336.64" y1="334.35" x2="342.21" y2="334.35" xlink:href="#linear-gradient-27"/><linearGradient id="linear-gradient-29" x1="340.85" y1="329.77" x2="337.73" y2="339.32" xlink:href="#linear-gradient-27"/><linearGradient id="linear-gradient-30" x1="337.68" y1="335.96" x2="318.16" y2="335.96" xlink:href="#linear-gradient-26"/><linearGradient id="linear-gradient-31" x1="337.47" y1="326.85" x2="319.29" y2="326.85" xlink:href="#linear-gradient-26"/><linearGradient id="_2" x1="337.48" y1="326.81" x2="314.85" y2="326.81" gradientUnits="userSpaceOnUse"><stop offset="0" stop-color="#fff"/><stop offset="1"/></linearGradient><linearGradient id="linear-gradient-32" x1="95.41" y1="357.76" x2="141.43" y2="391.33" xlink:href="#linear-gradient-7"/><linearGradient id="linear-gradient-33" x1="118.17" y1="347.62" x2="129.79" y2="361.55" xlink:href="#linear-gradient-7"/><linearGradient id="linear-gradient-34" x1="85.45" y1="380.42" x2="154.49" y2="380.42" xlink:href="#linear-gradient-7"/><linearGradient id="linear-gradient-35" x1="123.09" y1="412.33" x2="123.09" y2="440.42" xlink:href="#linear-gradient-21"/><linearGradient id="linear-gradient-36" x1="119.32" y1="427.94" x2="115.63" y2="434.34" xlink:href="#linear-gradient-7"/><linearGradient id="linear-gradient-37" x1="185.8" y1="385.72" x2="182.77" y2="429.45" xlink:href="#linear-gradient-7"/><linearGradient id="linear-gradient-38" x1="248.41" y1="351.79" x2="313.45" y2="351.79" xlink:href="#linear-gradient-7"/><linearGradient id="linear-gradient-39" x1="272.54" y1="143.6" x2="272.54" y2="290.64" gradientUnits="userSpaceOnUse"><stop offset="0" stop-color="#258feb"/><stop offset="1" stop-color="#030b30"/></linearGradient><linearGradient id="linear-gradient-40" x1="922.26" y1="226.36" x2="928.82" y2="314.33" gradientTransform="matrix(-1, 0, 0, 1, 1289.48, 0)" gradientUnits="userSpaceOnUse"><stop offset="0" stop-color="#c100ff"/><stop offset="1" stop-color="#6e00ff"/></linearGradient><linearGradient id="linear-gradient-41" x1="918.94" y1="254.77" x2="910.48" y2="271.71" gradientTransform="matrix(-1, 0, 0, 1, 1289.48, 0)" gradientUnits="userSpaceOnUse"><stop offset="0" stop-color="#f532ff"/><stop offset="1" stop-color="#a232ff"/></linearGradient><linearGradient id="linear-gradient-42" x1="981.03" y1="75.78" x2="987.58" y2="163.75" gradientTransform="matrix(-1, 0, 0, 1, 1289.48, 0)" gradientUnits="userSpaceOnUse"><stop offset="0" stop-color="#ffe71f"/><stop offset="1" stop-color="#ff8602"/></linearGradient><linearGradient id="linear-gradient-43" x1="977.71" y1="104.19" x2="969.24" y2="121.13" gradientTransform="matrix(-1, 0, 0, 1, 1289.48, 0)" gradientUnits="userSpaceOnUse"><stop offset="0" stop-color="#fff78c"/><stop offset="1" stop-color="#e76008"/></linearGradient><linearGradient id="linear-gradient-44" x1="1042.16" y1="97.99" x2="1048.72" y2="185.95" xlink:href="#linear-gradient-40"/><linearGradient id="linear-gradient-45" x1="1038.84" y1="126.4" x2="1030.38" y2="143.34" xlink:href="#linear-gradient-41"/><linearGradient id="linear-gradient-46" x1="1127.02" y1="104.51" x2="1133.58" y2="192.48" gradientTransform="matrix(-1, 0, 0, 1, 1289.48, 0)" gradientUnits="userSpaceOnUse"><stop offset="0" stop-color="#00c855"/><stop offset="1" stop-color="#009ec8"/></linearGradient><linearGradient id="linear-gradient-47" x1="1123.71" y1="132.92" x2="1115.24" y2="149.86" gradientTransform="matrix(-1, 0, 0, 1, 1289.48, 0)" gradientUnits="userSpaceOnUse"><stop offset="0" stop-color="#38f687"/><stop offset="1" stop-color="#76eaff"/></linearGradient><linearGradient id="linear-gradient-48" x1="864.63" y1="280.38" x2="871.18" y2="368.34" gradientTransform="matrix(-1, 0, 0, 1, 1289.48, 0)" gradientUnits="userSpaceOnUse"><stop offset="0" stop-color="#2962ff"/><stop offset="1" stop-color="#29ffee"/></linearGradient><linearGradient id="linear-gradient-49" x1="861.31" y1="308.79" x2="852.84" y2="325.73" gradientTransform="matrix(-1, 0, 0, 1, 1289.48, 0)" gradientUnits="userSpaceOnUse"><stop offset="0" stop-color="#6d99fe"/><stop offset="1" stop-color="#98fffe"/></linearGradient><linearGradient id="linear-gradient-50" x1="1203.25" y1="165.5" x2="1209.81" y2="253.46" xlink:href="#linear-gradient-42"/><linearGradient id="linear-gradient-51" x1="1199.94" y1="193.91" x2="1191.47" y2="210.85" xlink:href="#linear-gradient-43"/><linearGradient id="linear-gradient-52" x1="1224.8" y1="237.14" x2="1228.69" y2="289.29" gradientTransform="matrix(-1, 0, 0, 1, 1289.48, 0)" gradientUnits="userSpaceOnUse"><stop offset="0" stop-color="#a9d0e5"/><stop offset="1"/></linearGradient><linearGradient id="linear-gradient-53" x1="1134.01" y1="194.43" x2="1136.05" y2="221.83" xlink:href="#linear-gradient-52"/><linearGradient id="linear-gradient-54" x1="1237.06" y1="133.13" x2="1239.1" y2="160.53" xlink:href="#linear-gradient-52"/><linearGradient id="linear-gradient-55" x1="1129.52" y1="68.49" x2="1131.56" y2="95.89" xlink:href="#linear-gradient-52"/><linearGradient id="linear-gradient-56" x1="1076.25" y1="51.17" x2="1078.3" y2="78.57" xlink:href="#linear-gradient-52"/><linearGradient id="linear-gradient-57" x1="900.5" y1="133.13" x2="902.54" y2="160.53" xlink:href="#linear-gradient-52"/><linearGradient id="linear-gradient-58" x1="854.5" y1="132.11" x2="856.54" y2="159.51" xlink:href="#linear-gradient-52"/><linearGradient id="linear-gradient-59" x1="888.88" y1="90.8" x2="890.92" y2="118.2" xlink:href="#linear-gradient-52"/><linearGradient id="linear-gradient-60" x1="955.59" y1="193.06" x2="957.63" y2="220.46" xlink:href="#linear-gradient-52"/><linearGradient id="linear-gradient-61" x1="816.5" y1="226.31" x2="818.64" y2="255.05" xlink:href="#linear-gradient-52"/><linearGradient id="linear-gradient-62" x1="1247.55" y1="184.8" x2="1251.43" y2="236.95" xlink:href="#linear-gradient-52"/><linearGradient id="linear-gradient-63" x1="1092.13" y1="68.63" x2="1096.02" y2="120.77" xlink:href="#linear-gradient-52"/><linearGradient id="linear-gradient-64" x1="815.67" y1="296.34" x2="819.55" y2="348.49" xlink:href="#linear-gradient-52"/><linearGradient id="linear-gradient-65" x1="885.09" y1="403.65" x2="888.97" y2="455.8" xlink:href="#linear-gradient-52"/><linearGradient id="linear-gradient-66" x1="870.01" y1="161.6" x2="873.9" y2="213.75" xlink:href="#linear-gradient-52"/><linearGradient id="linear-gradient-67" x1="983.32" y1="145.67" x2="987.21" y2="197.81" xlink:href="#linear-gradient-52"/><linearGradient id="linear-gradient-68" x1="928.42" y1="74.54" x2="932.31" y2="126.69" xlink:href="#linear-gradient-52"/><linearGradient id="linear-gradient-69" x1="1019.43" y1="56.65" x2="1023.31" y2="108.79" xlink:href="#linear-gradient-52"/><linearGradient id="linear-gradient-70" x1="862.26" y1="204.26" x2="868.81" y2="292.22" gradientTransform="matrix(-1, 0, 0, 1, 1289.48, 0)" gradientUnits="userSpaceOnUse"><stop offset="0" stop-color="#fdb441"/><stop offset="1" stop-color="#ff20b3"/></linearGradient><linearGradient id="linear-gradient-71" x1="858.94" y1="232.67" x2="850.47" y2="249.61" gradientTransform="matrix(-1, 0, 0, 1, 1289.48, 0)" gradientUnits="userSpaceOnUse"><stop offset="0" stop-color="#ffce6d"/><stop offset="1" stop-color="#ca1b77"/></linearGradient><linearGradient id="linear-gradient-72" x1="920.27" y1="133.9" x2="926.83" y2="221.86" xlink:href="#linear-gradient-46"/><linearGradient id="linear-gradient-73" x1="916.96" y1="162.31" x2="908.49" y2="179.24" xlink:href="#linear-gradient-47"/><linearGradient id="linear-gradient-74" x1="870.03" y1="349.13" x2="876.58" y2="437.09" gradientTransform="matrix(-1, 0, 0, 1, 1289.48, 0)" gradientUnits="userSpaceOnUse"><stop offset="0" stop-color="#a9fb00"/><stop offset="1" stop-color="#12de13"/></linearGradient><linearGradient id="linear-gradient-75" x1="866.71" y1="377.54" x2="858.24" y2="394.48" gradientTransform="matrix(-1, 0, 0, 1, 1289.48, 0)" gradientUnits="userSpaceOnUse"><stop offset="0" stop-color="#d9ff89"/><stop offset="1" stop-color="#25ff26"/></linearGradient><linearGradient id="linear-gradient-76" x1="1191.09" y1="78.62" x2="1197.64" y2="166.59" xlink:href="#linear-gradient-48"/><linearGradient id="linear-gradient-77" x1="1187.77" y1="107.03" x2="1179.3" y2="123.97" xlink:href="#linear-gradient-49"/></defs><title>Asset 1</title><g class="cls-1"><g id="Layer_2" data-name="Layer 2"><g id="_14_" data-name=" 14 ()"><path class="cls-2" d="M489.36,0H0V435.23H0c0,36.15,23.89,72.31,71.66,99.89,95.56,55.17,250.48,55.17,346,0,47.77-27.58,71.65-63.74,71.66-99.89h0Z"/><path class="cls-3" d="M17,124.73a3.55,3.55,0,0,0-3.56,3.55V397.87h7.11V128.28A3.55,3.55,0,0,0,17,124.73Z"/><path class="cls-4" d="M125,138.18a1.73,1.73,0,0,0-1.74,1.74v132h3.48v-132A1.73,1.73,0,0,0,125,138.18Z"/><path class="cls-5" d="M454.79,59.47a2.68,2.68,0,0,0-2.68,2.67V363h5.34V62.14A2.67,2.67,0,0,0,454.79,59.47Z"/><path class="cls-6" d="M472,91.73a1.46,1.46,0,0,0-1.46,1.46V256.88h2.91V93.19A1.45,1.45,0,0,0,472,91.73Z"/><path class="cls-7" d="M57.58,39.47a1.45,1.45,0,0,0-1.45,1.45v163.7H59V40.92A1.45,1.45,0,0,0,57.58,39.47Z"/><path class="cls-8" d="M442.64,111.75a5.4,5.4,0,1,1-5.4-5.4A5.4,5.4,0,0,1,442.64,111.75Z"/><path class="cls-8" d="M440.7,111.75a3.46,3.46,0,1,1-3.46-3.46A3.45,3.45,0,0,1,440.7,111.75Z"/><path class="cls-9" d="M439.54,111.75a2.3,2.3,0,1,1-2.3-2.31A2.3,2.3,0,0,1,439.54,111.75Z"/><path class="cls-8" d="M45.47,90.53a5.4,5.4,0,1,1-5.41-5.4A5.4,5.4,0,0,1,45.47,90.53Z"/><path class="cls-8" d="M43.53,90.53a3.46,3.46,0,1,1-3.47-3.46A3.47,3.47,0,0,1,43.53,90.53Z"/><path class="cls-9" d="M42.37,90.53a2.31,2.31,0,1,1-2.31-2.31A2.3,2.3,0,0,1,42.37,90.53Z"/><path class="cls-8" d="M115.43,66.9a3.2,3.2,0,1,1-3.2-3.2A3.2,3.2,0,0,1,115.43,66.9Z"/><path class="cls-8" d="M114.28,66.9a2,2,0,1,1-2-2.05A2.05,2.05,0,0,1,114.28,66.9Z"/><path class="cls-9" d="M113.59,66.9a1.36,1.36,0,1,1-1.36-1.37A1.36,1.36,0,0,1,113.59,66.9Z"/><path class="cls-8" d="M105.47,173a3.2,3.2,0,1,1-3.2-3.2A3.2,3.2,0,0,1,105.47,173Z"/><path class="cls-8" d="M104.32,173a2,2,0,1,1-2-2A2,2,0,0,1,104.32,173Z"/><path class="cls-9" d="M103.63,173a1.37,1.37,0,1,1-1.36-1.37A1.36,1.36,0,0,1,103.63,173Z"/><path class="cls-8" d="M48.66,267a3.2,3.2,0,1,1-3.2-3.19A3.2,3.2,0,0,1,48.66,267Z"/><path class="cls-8" d="M47.52,267a2.05,2.05,0,1,1-4.1,0,2.05,2.05,0,0,1,4.1,0Z"/><path class="cls-9" d="M46.83,267a1.37,1.37,0,1,1-1.37-1.36A1.37,1.37,0,0,1,46.83,267Z"/><path class="cls-8" d="M381.6,223.45a3.2,3.2,0,1,1-3.2-3.2A3.2,3.2,0,0,1,381.6,223.45Z"/><path class="cls-8" d="M380.45,223.45a2.05,2.05,0,1,1-2.05-2A2.05,2.05,0,0,1,380.45,223.45Z"/><path class="cls-9" d="M379.76,223.45a1.36,1.36,0,1,1-1.36-1.36A1.37,1.37,0,0,1,379.76,223.45Z"/><path class="cls-8" d="M391.19,78.88a3.2,3.2,0,1,1-3.2-3.2A3.2,3.2,0,0,1,391.19,78.88Z"/><path class="cls-8" d="M390.05,78.88a2.05,2.05,0,1,1-2.06-2A2.06,2.06,0,0,1,390.05,78.88Z"/><path class="cls-9" d="M389.36,78.88A1.37,1.37,0,1,1,388,77.51,1.36,1.36,0,0,1,389.36,78.88Z"/><path class="cls-8" d="M332.43,80.24a3.2,3.2,0,1,1-3.2-3.19A3.2,3.2,0,0,1,332.43,80.24Z"/><path class="cls-8" d="M331.28,80.24a2.05,2.05,0,1,1-2-2A2.05,2.05,0,0,1,331.28,80.24Z"/><path class="cls-9" d="M330.59,80.24a1.36,1.36,0,1,1-1.36-1.36A1.36,1.36,0,0,1,330.59,80.24Z"/><path class="cls-10" d="M375.86,439.87,201,339l-96.18,56.22,44.84,25.89c-14,1.83-27.31,5.88-38.22,12.18-30.77,17.77-30.77,46.58,0,64.35s80.68,17.77,111.46,0c10.9-6.3,17.92-14,21.1-22.06l35.66,20.48Z"/><path class="cls-11" d="M371.78,341c0-5.34-3.78-7.52-8.41-4.85l-60.94,35.18v5.73l57.23-33c4.1-2.37,7.45-.43,7.45,4.3v72.33a16.54,16.54,0,0,1-7.45,12.91l-57.23,33v5.74L306,475l57.38-37.82c4.63-2.67,8.41-9.22,8.41-14.57Z"/><path class="cls-12" d="M375.34,343.65c0-5.34-3.79-7.52-8.41-4.85L306,374v5.73l57.23-33c4.1-2.37,7.45-.43,7.45,4.3v72.33a16.54,16.54,0,0,1-7.45,12.91l-57.23,33V475l60.94-35.18c4.63-2.67,8.41-9.23,8.41-14.57Z"/><path class="cls-13" d="M184,445l-.95,6.3s-.43,4.17,4.72,4.64,7-3,8.57-5.47,5.3-7.58,9.36-8.3,11.7-7.27,10-11.36c-1.46-3.54-10.17-4.8-18.73.87v2.28s0,5.63-4.72,8.06A30.58,30.58,0,0,1,184,445Z"/><path class="cls-14" d="M200.24,408.27l0-1c-6.33,2.52-13.74,5.49-21.06,8.48L183,445.92s9.18,3.93,15.22-2.66a17.75,17.75,0,0,0,4.48-14.45S200,415.19,200.24,408.27Z"/><path class="cls-15" d="M137.39,494.28l-3.47-1.95a2.68,2.68,0,0,0-2.66.27,8.34,8.34,0,0,0-3.76,6.52,2.66,2.66,0,0,0,1.12,2.45l3.47,1.94a2.66,2.66,0,0,0,2.65-.27,8.32,8.32,0,0,0,3.77-6.52A2.63,2.63,0,0,0,137.39,494.28Z"/><path class="cls-16" d="M204,490.09l-3.47-1.94a2.68,2.68,0,0,0-2.66.27,8.31,8.31,0,0,0-3.76,6.52,2.65,2.65,0,0,0,1.11,2.44l3.48,1.95a2.66,2.66,0,0,0,2.65-.28,8.31,8.31,0,0,0,3.76-6.52A2.63,2.63,0,0,0,204,490.09Z"/><path class="cls-17" d="M215,450.11l-3.47-1.94a2.63,2.63,0,0,0-2.65.27,8.31,8.31,0,0,0-3.77,6.51,2.64,2.64,0,0,0,1.12,2.45l3.47,1.94a2.65,2.65,0,0,0,2.66-.27,8.33,8.33,0,0,0,3.75-6.52A2.63,2.63,0,0,0,215,450.11Z"/><path class="cls-18" d="M107.51,460.33,104,458.39a2.65,2.65,0,0,0-2.65.26,8.33,8.33,0,0,0-3.76,6.53,2.63,2.63,0,0,0,1.11,2.44l3.48,1.95a2.67,2.67,0,0,0,2.65-.28,8.3,8.3,0,0,0,3.76-6.52A2.63,2.63,0,0,0,107.51,460.33Z"/><path class="cls-19" d="M216.3,443.79c-.14-2.67-1.16-4.1-2.05-4.65s-3.69,0-3.69,0l-42.85,12.53v-9.83c0-1.2-.79-2.39-2.37-3.3a12.63,12.63,0,0,0-11.45,0c-1.58.91-2.37,2.1-2.37,3.3v11.28l-50.78-4.61s-2.22.3-2.73,1.77a26.74,26.74,0,0,0-1.44,6.84c-.07,2.32.89,3.69,3.56,4,2.24.29,36.23,3.92,46.9,5.06h0c-5.65,6.48-17.25,20.23-17.25,20.23a9.17,9.17,0,0,0-1.29,4.09c-.14,2.33-.34,5.74-.34,5.74s.61,1.78,3.27,1.64,4.17-1.64,7.21-4.68,19.72-21.17,19.72-21.17a.21.21,0,0,0,0-.06,12.87,12.87,0,0,0,6.22-.92,1.13,1.13,0,0,1,0,.12s29.37,17.66,34.06,20.18,6.48-.9,6.48-.9,0-3.48-.18-6a9.49,9.49,0,0,0-2-4.69s-22-13.51-27.44-16.46c-.41-.21-.8-.44-1.17-.67h0c8.73-2.48,30.88-8.79,34.05-9.72,4-1.16,7.93-2.8,7.93-2.8S216.43,446.46,216.3,443.79Z"/><path class="cls-20" d="M196.87,479.9c2.47,1.56,4.33,1.91,5.42,1.74a1.1,1.1,0,0,0,.79-1.63l-.16-.22s-22-13.51-27.44-16.46a22.41,22.41,0,0,1-7.77-6.6c-1.58,2.28-5.39,3.24-5.39,3.24,1.62,0,5.61,2.46,5.61,2.46S194.41,478.35,196.87,479.9Z"/><path class="cls-21" d="M157.8,460.26a12.54,12.54,0,0,0-2.8,2.41s-17.61,21-19,22.77a6.41,6.41,0,0,1-5,2.44,1.36,1.36,0,0,1-1.22-1.44s16.54-19.62,19.75-23a17.54,17.54,0,0,0,2-2.5v-5.18a9.87,9.87,0,0,0,2.86,2.95A21.37,21.37,0,0,0,157.8,460.26Z"/><path class="cls-22" d="M214.25,439.14c-.89-.55-3.69,0-3.69,0l-42.85,12.53v2.08l44.2-12s2.43-.7,3.12-1.85A3,3,0,0,0,214.25,439.14Z"/><path class="cls-23" d="M98.15,450c.81,1.12,3,1.38,3,1.38l50.39,4.26v-2.55l-50.78-4.61A3.89,3.89,0,0,0,98.15,450Z"/><path class="cls-13" d="M245.56,451.42c-5.86.08-10.94,3-17.23-1,0,0-4.6,5.08-15.66,5.66l-1.84,4.24a19.9,19.9,0,0,0-1.53,8.25s2.15,5.07,9,4,8.71-3.28,17-2.48c7.27.69,17.89-2.92,20.8-9.5S252,451.34,245.56,451.42Z"/><path class="cls-24" d="M217.53,400.44a21.09,21.09,0,0,0-4.24,14.42c.61,8.83-2.87,41.76-4.9,50.37,0,0,17.12.89,24.45-3.52s4.49-8.63,4.49-8.63-1.65-11.72-.84-19.89,7-36.24,8.34-48.47c0,0,1.2-8.65-5.12-7.75S223,388.84,217.53,400.44Z"/><path class="cls-14" d="M221,411.57c-.32-9,2.41-13.59,2.41-13.59a19.77,19.77,0,0,1-5.92,2.46,21.09,21.09,0,0,0-4.24,14.42c.61,8.83-2.87,41.76-4.9,50.37a90.08,90.08,0,0,0,13.19-.43C223.05,447.55,221.3,419,221,411.57Z"/><path class="cls-25" d="M102,414.18s-1.39,6.77,4.84,12.7,21.09,15.62,31.1,17.54,30.48-2.84,40.79-7.54,33.71-19.32,37.71-22.7,5.7-7,4.85-10.28-7.39-5.42-9.54-6.12S189.2,387.32,183,382.55s-12.23-9.09-14.23-11.32-7.32-6-17.25-3.69-24.7,9.39-35.86,22.63S102,414.18,102,414.18Z"/><path class="cls-26" d="M221.29,403.9a5.3,5.3,0,0,0-2.14-2.72,3.67,3.67,0,0,1-.17,3.46c-1.84,2.54-14.85,11.85-24.86,17s-28.09,17-46.33,17.86A100.82,100.82,0,0,1,120,429.1c-10.75-5.84-15.37-13.62-17.14-17.61a25.75,25.75,0,0,0-.83,2.69s-1.39,6.77,4.84,12.7,21.09,15.62,31.1,17.54,30.48-2.84,40.79-7.54,33.71-19.32,37.71-22.7S222.14,407.16,221.29,403.9Z"/><path class="cls-27" d="M144.79,432s6.92,2,17.62-1,29.85-13.85,37-17.88,15.08-10.08,15.78-11.47-.63-2.15-2.9-3.08-23-9.69-28.82-14.39S168.26,372.62,166.8,371s-6.77-4.69-14.47-2.46c0,0-27.63,9.39-36,26.63S132.55,430.05,144.79,432Z"/><path class="cls-24" d="M217.53,400.44s-21.86,8.52-41.64,16.64c-18.93,7.78-30.14,4.47-37.66-3.76-10.09-11.05-5.55-35.25-5.55-35.25l44-3.62s38.63-7.18,53.69-7.62,15.09,12.18,14.47,17.89C244.83,384.72,239.49,394.2,217.53,400.44Z"/><path class="cls-14" d="M138.23,413.32c-10.09-11.05-5.55-35.25-5.55-35.25l44-3.62s12.28-2.28,25.7-4.35c.51-7.5-.52-21.7-13.71-21.21-16,.58-52,18.47-52,18.47L123,371s-6.26,15.9-1,29.4c4.33,11.17,10,13.1,17.43,14.1C139,414.14,138.62,413.74,138.23,413.32Z"/><polygon class="cls-28" points="389.56 334.02 281.98 396.29 102.06 292.2 209.64 233.14 389.56 334.02"/><polygon class="cls-29" points="389.56 338.73 281.98 401 281.98 396.29 389.56 334.02 389.56 338.73"/><polygon class="cls-30" points="281.98 396.29 281.98 401 102.06 296.91 102.06 292.2 281.98 396.29"/><path class="cls-31" d="M248.48,346.47a2.06,2.06,0,0,1-1.9,0L169.3,301.86a.58.58,0,0,1,0-1.1l24.49-14.14a2.14,2.14,0,0,1,1.91,0L273,331.24a.58.58,0,0,1,0,1.1Z"/><path class="cls-32" d="M273,332.34l-24.49,14.13a2.06,2.06,0,0,1-1.9,0L169.3,301.86a.67.67,0,0,1-.39-.55h0v1.28a.66.66,0,0,0,.39.6l77.28,44.61a2.12,2.12,0,0,0,1.9,0L273,333.67a.68.68,0,0,0,.39-.56v-1.28A.7.7,0,0,1,273,332.34Z"/><path class="cls-33" d="M189.62,294.57a.57.57,0,0,1-.48,0l-1.8-1.05a.14.14,0,0,1,0-.27l1.8-1a.51.51,0,0,1,.48,0l1.8,1a.14.14,0,0,1,0,.27Z"/><path class="cls-33" d="M192.72,296.35a.51.51,0,0,1-.48,0l-1.8-1a.14.14,0,0,1,0-.27l1.8-1a.51.51,0,0,1,.48,0l1.8,1a.14.14,0,0,1,0,.27Z"/><path class="cls-33" d="M195.81,298.14a.49.49,0,0,1-.47,0l-1.8-1a.15.15,0,0,1,0-.28l1.8-1a.49.49,0,0,1,.47,0l1.8,1a.15.15,0,0,1,0,.28Z"/><path class="cls-33" d="M198.91,299.93a.57.57,0,0,1-.48,0l-1.79-1c-.14-.08-.14-.2,0-.28l1.79-1a.57.57,0,0,1,.48,0l1.8,1a.15.15,0,0,1,0,.28Z"/><path class="cls-33" d="M202,301.72a.57.57,0,0,1-.48,0l-1.8-1a.15.15,0,0,1,0-.28l1.8-1a.57.57,0,0,1,.48,0l1.8,1a.15.15,0,0,1,0,.28Z"/><path class="cls-33" d="M205.11,303.5a.51.51,0,0,1-.48,0l-1.8-1a.15.15,0,0,1,0-.28l1.8-1a.57.57,0,0,1,.48,0l1.8,1a.15.15,0,0,1,0,.28Z"/><path class="cls-33" d="M208.2,305.29a.49.49,0,0,1-.47,0l-1.8-1a.15.15,0,0,1,0-.28l1.8-1a.55.55,0,0,1,.47,0l1.8,1a.14.14,0,0,1,0,.27Z"/><path class="cls-33" d="M211.3,307.08a.51.51,0,0,1-.48,0L209,306c-.14-.08-.14-.2,0-.27l1.79-1a.51.51,0,0,1,.48,0l1.8,1c.13.07.13.19,0,.27Z"/><path class="cls-33" d="M214.4,308.87a.57.57,0,0,1-.48,0l-1.8-1c-.13-.08-.13-.2,0-.27l1.8-1a.51.51,0,0,1,.48,0l1.8,1c.13.07.13.19,0,.27Z"/><path class="cls-33" d="M217.5,310.66a.57.57,0,0,1-.48,0l-1.8-1a.15.15,0,0,1,0-.28l1.8-1a.51.51,0,0,1,.48,0l1.8,1a.15.15,0,0,1,0,.28Z"/><path class="cls-33" d="M220.59,312.45a.55.55,0,0,1-.47,0l-1.8-1a.15.15,0,0,1,0-.28l1.8-1a.55.55,0,0,1,.47,0l1.8,1a.15.15,0,0,1,0,.28Z"/><path class="cls-33" d="M252.06,330.62a.57.57,0,0,1-.48,0l-1.79-1c-.14-.08-.14-.21,0-.28l1.79-1a.57.57,0,0,1,.48,0l1.8,1c.13.07.13.2,0,.28Z"/><path class="cls-33" d="M255.16,332.4a.51.51,0,0,1-.48,0l-1.8-1a.14.14,0,0,1,0-.27l1.8-1a.51.51,0,0,1,.48,0l1.8,1a.14.14,0,0,1,0,.27Z"/><path class="cls-33" d="M258.26,334.19a.51.51,0,0,1-.48,0l-1.8-1a.14.14,0,0,1,0-.27l1.8-1a.51.51,0,0,1,.48,0l1.8,1a.14.14,0,0,1,0,.27Z"/><path class="cls-33" d="M261.35,336a.55.55,0,0,1-.47,0l-1.8-1a.15.15,0,0,1,0-.28l1.8-1a.49.49,0,0,1,.47,0l1.8,1a.15.15,0,0,1,0,.28Z"/><path class="cls-33" d="M248.92,332.43a.57.57,0,0,1-.48,0l-1.8-1c-.13-.07-.13-.2,0-.28l1.8-1a.51.51,0,0,1,.48,0l1.8,1c.13.08.13.21,0,.28Z"/><path class="cls-33" d="M252,334.22a.57.57,0,0,1-.48,0l-1.8-1a.15.15,0,0,1,0-.28l1.8-1a.57.57,0,0,1,.48,0l1.79,1c.14.08.14.2,0,.28Z"/><path class="cls-33" d="M255.11,336a.55.55,0,0,1-.47,0l-1.8-1a.15.15,0,0,1,0-.28l1.8-1a.55.55,0,0,1,.47,0l1.8,1a.15.15,0,0,1,0,.28Z"/><path class="cls-33" d="M245.78,334.24a.51.51,0,0,1-.48,0l-1.8-1a.14.14,0,0,1,0-.27l1.8-1a.57.57,0,0,1,.48,0l1.8,1a.14.14,0,0,1,0,.27Z"/><path class="cls-33" d="M248.87,336a.55.55,0,0,1-.47,0l-1.8-1c-.14-.07-.14-.2,0-.27l1.8-1a.49.49,0,0,1,.47,0l1.8,1a.14.14,0,0,1,0,.27Z"/><path class="cls-33" d="M252,337.82a.57.57,0,0,1-.48,0l-1.79-1a.15.15,0,0,1,0-.28l1.79-1a.51.51,0,0,1,.48,0l1.8,1a.15.15,0,0,1,0,.28Z"/><path class="cls-33" d="M255.07,339.61a.57.57,0,0,1-.48,0l-1.8-1a.15.15,0,0,1,0-.28l4.94-2.85a.51.51,0,0,1,.48,0l1.8,1a.15.15,0,0,1,0,.28Z"/><path class="cls-33" d="M242.64,336.06a.57.57,0,0,1-.48,0l-1.8-1a.15.15,0,0,1,0-.28l1.8-1a.57.57,0,0,1,.48,0l1.79,1c.14.08.14.2,0,.28Z"/><path class="cls-33" d="M245.73,337.85a.55.55,0,0,1-.47,0l-1.8-1.05c-.14-.07-.14-.19,0-.27l1.8-1a.55.55,0,0,1,.47,0l1.8,1a.15.15,0,0,1,0,.28Z"/><path class="cls-33" d="M248.83,339.63a.51.51,0,0,1-.48,0l-1.8-1a.15.15,0,0,1,0-.28l1.8-1a.51.51,0,0,1,.48,0l1.8,1a.15.15,0,0,1,0,.28Z"/><path class="cls-33" d="M242.53,339.62a.51.51,0,0,1-.48,0l-4.83-2.79a.14.14,0,0,1,0-.27l1.8-1a.49.49,0,0,1,.47,0l4.83,2.79c.14.07.14.2,0,.27Z"/><path class="cls-33" d="M245.69,341.45a.57.57,0,0,1-.48,0l-1.8-1a.15.15,0,0,1,0-.28l1.8-1a.51.51,0,0,1,.48,0l1.79,1c.14.08.14.2,0,.28Z"/><path class="cls-33" d="M248.79,343.23a.51.51,0,0,1-.48,0l-1.8-1a.15.15,0,0,1,0-.28l4.94-2.85a.51.51,0,0,1,.48,0l1.8,1a.14.14,0,0,1,0,.27Z"/><path class="cls-33" d="M223.69,314.24a.57.57,0,0,1-.48,0l-1.79-1c-.14-.08-.14-.2,0-.28l1.79-1a.57.57,0,0,1,.48,0l1.8,1a.15.15,0,0,1,0,.28Z"/><path class="cls-33" d="M239.78,323.52a.51.51,0,0,1-.48,0l-1.8-1a.14.14,0,0,1,0-.27l1.8-1a.51.51,0,0,1,.48,0l1.8,1a.14.14,0,0,1,0,.27Z"/><path class="cls-33" d="M242.87,325.31a.49.49,0,0,1-.47,0l-1.8-1a.14.14,0,0,1,0-.27l1.8-1a.49.49,0,0,1,.47,0l1.8,1a.14.14,0,0,1,0,.27Z"/><path class="cls-33" d="M246,327.1a.55.55,0,0,1-.47,0l-1.8-1c-.14-.08-.14-.2,0-.28l1.8-1a.49.49,0,0,1,.47,0l1.8,1a.15.15,0,0,1,0,.28Z"/><path class="cls-33" d="M236.64,325.34a.57.57,0,0,1-.48,0l-1.8-1a.15.15,0,0,1,0-.28l1.8-1a.51.51,0,0,1,.48,0l1.79,1a.15.15,0,0,1,0,.28Z"/><path class="cls-33" d="M239.73,327.13a.57.57,0,0,1-.48,0l-1.79-1c-.14-.08-.14-.21,0-.28l1.79-1a.51.51,0,0,1,.48,0l1.8,1c.13.07.13.2,0,.28Z"/><path class="cls-33" d="M242.83,328.91a.51.51,0,0,1-.48,0l-1.8-1c-.13-.08-.13-.21,0-.28l1.8-1a.51.51,0,0,1,.48,0l1.8,1c.13.07.13.2,0,.28Z"/><path class="cls-33" d="M233.46,330.74a.49.49,0,0,1-.47,0l-1.8-1a.14.14,0,0,1,0-.27l1.8-1a.49.49,0,0,1,.47,0l1.8,1a.14.14,0,0,1,0,.27Z"/><path class="cls-33" d="M227.23,330.77a.51.51,0,0,1-.48,0l-1.8-1a.15.15,0,0,1,0-.28l1.8-1a.51.51,0,0,1,.48,0l1.79,1c.14.08.14.2,0,.28Z"/><path class="cls-33" d="M230.32,332.56a.57.57,0,0,1-.48,0l-1.79-1a.15.15,0,0,1,0-.28l1.79-1a.57.57,0,0,1,.48,0l1.8,1a.15.15,0,0,1,0,.28Z"/><path class="cls-33" d="M233.42,334.34a.51.51,0,0,1-.48,0l-1.8-1a.15.15,0,0,1,0-.28l1.8-1a.57.57,0,0,1,.48,0l1.8,1a.15.15,0,0,1,0,.28Z"/><path class="cls-33" d="M191.12,299.06a.55.55,0,0,1-.47,0l-1.8-1c-.13-.08-.13-.2,0-.27l1.8-1a.49.49,0,0,1,.47,0l1.8,1c.13.07.13.19,0,.27Z"/><path class="cls-33" d="M188.07,297.3a.57.57,0,0,1-.48,0l-3.39-2a.15.15,0,0,1,0-.28l1.8-1a.57.57,0,0,1,.48,0l3.39,2a.15.15,0,0,1,0,.28Z"/><path class="cls-33" d="M194.22,300.85a.57.57,0,0,1-.48,0l-1.79-1c-.14-.08-.14-.2,0-.28l1.79-1a.51.51,0,0,1,.48,0l1.8,1a.15.15,0,0,1,0,.28Z"/><path class="cls-33" d="M197.32,302.64a.57.57,0,0,1-.48,0l-1.8-1a.15.15,0,0,1,0-.28l1.8-1a.57.57,0,0,1,.48,0l1.8,1a.15.15,0,0,1,0,.28Z"/><path class="cls-33" d="M200.41,304.42a.49.49,0,0,1-.47,0l-1.8-1a.15.15,0,0,1,0-.28l1.8-1a.55.55,0,0,1,.47,0l1.81,1a.15.15,0,0,1,0,.28Z"/><path class="cls-33" d="M203.51,306.22a.55.55,0,0,1-.47,0l-1.8-1.05a.14.14,0,0,1,0-.27l1.8-1a.49.49,0,0,1,.47,0l1.8,1a.14.14,0,0,1,0,.27Z"/><path class="cls-33" d="M206.61,308a.51.51,0,0,1-.48,0l-1.8-1a.14.14,0,0,1,0-.27l1.8-1a.51.51,0,0,1,.48,0l1.8,1a.14.14,0,0,1,0,.27Z"/><path class="cls-33" d="M209.71,309.79a.51.51,0,0,1-.48,0l-1.8-1a.14.14,0,0,1,0-.27l1.8-1a.51.51,0,0,1,.48,0l1.8,1a.14.14,0,0,1,0,.27Z"/><path class="cls-33" d="M212.81,311.58a.57.57,0,0,1-.48,0l-1.8-1a.15.15,0,0,1,0-.28l1.8-1a.51.51,0,0,1,.48,0l1.79,1c.14.08.14.2,0,.28Z"/><path class="cls-33" d="M215.9,313.37a.55.55,0,0,1-.47,0l-1.8-1a.15.15,0,0,1,0-.28l1.8-1a.52.52,0,0,1,.47,0l1.8,1a.15.15,0,0,1,0,.28Z"/><path class="cls-33" d="M219,315.16a.57.57,0,0,1-.48,0l-1.79-1.05c-.14-.07-.14-.19,0-.27l1.79-1a.57.57,0,0,1,.48,0l1.8,1a.15.15,0,0,1,0,.28Z"/><path class="cls-33" d="M222.1,316.94a.51.51,0,0,1-.48,0l-1.8-1c-.13-.08-.13-.21,0-.28l1.8-1a.57.57,0,0,1,.48,0l1.8,1c.13.07.13.2,0,.28Z"/><path class="cls-33" d="M225.2,318.73a.57.57,0,0,1-.48,0l-1.8-1a.14.14,0,0,1,0-.27l1.8-1a.51.51,0,0,1,.48,0l1.79,1a.14.14,0,0,1,0,.27Z"/><path class="cls-33" d="M230.5,321.79a.51.51,0,0,1-.48,0l-4-2.28a.15.15,0,0,1,0-.28l1.8-1a.57.57,0,0,1,.48,0l4,2.29a.14.14,0,0,1,0,.27Z"/><path class="cls-33" d="M189.53,301.77a.57.57,0,0,1-.48,0l-1.79-1c-.14-.08-.14-.2,0-.28l1.79-1a.51.51,0,0,1,.48,0l1.8,1a.15.15,0,0,1,0,.28Z"/><path class="cls-33" d="M186.43,300a.55.55,0,0,1-.47,0l-4.84-2.79c-.13-.08-.13-.2,0-.27l1.8-1a.51.51,0,0,1,.48,0l4.83,2.78c.13.08.13.21,0,.28Z"/><path class="cls-33" d="M192.63,303.56a.57.57,0,0,1-.48,0l-1.8-1a.15.15,0,0,1,0-.28l1.8-1a.57.57,0,0,1,.48,0l1.8,1a.15.15,0,0,1,0,.28Z"/><path class="cls-33" d="M195.72,305.35a.55.55,0,0,1-.47,0l-1.8-1a.15.15,0,0,1,0-.28l1.8-1a.55.55,0,0,1,.47,0l1.8,1c.14.08.14.2,0,.28Z"/><path class="cls-33" d="M198.82,307.13a.51.51,0,0,1-.48,0l-1.79-1a.14.14,0,0,1,0-.27l1.79-1a.54.54,0,0,1,.48,0l1.8,1a.14.14,0,0,1,0,.27Z"/><path class="cls-33" d="M201.92,308.92a.51.51,0,0,1-.48,0l-1.8-1a.14.14,0,0,1,0-.27l1.8-1a.51.51,0,0,1,.48,0l1.8,1a.14.14,0,0,1,0,.27Z"/><path class="cls-33" d="M205,310.71a.57.57,0,0,1-.48,0l-1.8-1c-.13-.07-.13-.2,0-.28l1.8-1a.51.51,0,0,1,.48,0l1.79,1c.14.08.14.21,0,.28Z"/><path class="cls-33" d="M208.11,312.5a.55.55,0,0,1-.47,0l-1.8-1c-.13-.07-.13-.2,0-.28l1.8-1a.49.49,0,0,1,.47,0l1.8,1c.14.08.14.21,0,.28Z"/><path class="cls-33" d="M211.21,314.28a.49.49,0,0,1-.47,0l-1.8-1c-.14-.08-.14-.2,0-.28l1.8-1a.55.55,0,0,1,.47,0l1.8,1a.15.15,0,0,1,0,.28Z"/><path class="cls-33" d="M214.31,316.07a.51.51,0,0,1-.48,0l-1.8-1a.15.15,0,0,1,0-.28l1.8-1a.57.57,0,0,1,.48,0l1.8,1a.15.15,0,0,1,0,.28Z"/><path class="cls-33" d="M217.41,317.86a.51.51,0,0,1-.48,0l-1.8-1c-.13-.08-.13-.21,0-.28l1.8-1a.57.57,0,0,1,.48,0l1.8,1a.15.15,0,0,1,0,.28Z"/><path class="cls-33" d="M220.5,319.65a.49.49,0,0,1-.47,0l-1.8-1a.14.14,0,0,1,0-.27l1.8-1a.49.49,0,0,1,.47,0l1.8,1a.14.14,0,0,1,0,.27Z"/><path class="cls-33" d="M227.36,323.61a.51.51,0,0,1-.48,0l-5.46-3.16c-.14-.07-.14-.2,0-.27l1.79-1a.57.57,0,0,1,.48,0l5.47,3.15a.15.15,0,0,1,0,.28Z"/><path class="cls-33" d="M187.68,304.38a.51.51,0,0,1-.48,0l-1.8-1c-.13-.07-.13-.19,0-.27l1.8-1a.51.51,0,0,1,.48,0l1.8,1c.13.08.13.2,0,.27Z"/><path class="cls-33" d="M184.55,302.58a.55.55,0,0,1-.47,0L178,299.07a.15.15,0,0,1,0-.28l1.8-1a.51.51,0,0,1,.48,0l6.07,3.5c.13.08.14.2,0,.28Z"/><path class="cls-33" d="M190.78,306.17a.51.51,0,0,1-.48,0l-1.8-1a.14.14,0,0,1,0-.27l1.8-1a.51.51,0,0,1,.48,0l1.8,1a.14.14,0,0,1,0,.27Z"/><path class="cls-33" d="M193.87,308a.49.49,0,0,1-.47,0l-1.8-1c-.13-.08-.13-.2,0-.27l1.8-1a.49.49,0,0,1,.47,0l1.8,1c.13.07.13.19,0,.27Z"/><path class="cls-33" d="M177.64,302.27a.57.57,0,0,1-.48,0l-2.35-1.36a.15.15,0,0,1,0-.28l1.8-1a.51.51,0,0,1,.48,0l2.35,1.35a.15.15,0,0,1,0,.28Z"/><path class="cls-33" d="M181.29,304.37a.51.51,0,0,1-.48,0L178.46,303c-.14-.07-.14-.19,0-.27l1.79-1a.57.57,0,0,1,.48,0l2.35,1.36a.14.14,0,0,1,0,.27Z"/><path class="cls-33" d="M184.93,306.48a.57.57,0,0,1-.48,0l-2.35-1.36a.15.15,0,0,1,0-.28l1.8-1a.57.57,0,0,1,.48,0l2.35,1.36a.15.15,0,0,1,0,.28Z"/><path class="cls-33" d="M206.41,318.88a.57.57,0,0,1-.48,0l-20.18-11.66c-.14-.08-.14-.2,0-.27l1.79-1a.51.51,0,0,1,.48,0l20.19,11.65c.13.08.13.21,0,.28Z"/><path class="cls-33" d="M210.07,321a.49.49,0,0,1-.47,0l-2.35-1.35c-.14-.08-.13-.2,0-.28l1.79-1a.57.57,0,0,1,.48,0l2.35,1.36a.14.14,0,0,1,0,.27Z"/><path class="cls-33" d="M213.72,323.1a.57.57,0,0,1-.48,0l-2.35-1.36a.15.15,0,0,1,0-.28l1.8-1a.51.51,0,0,1,.48,0l2.35,1.35a.15.15,0,0,1,0,.28Z"/><path class="cls-33" d="M217.36,325.2a.49.49,0,0,1-.47,0l-2.35-1.35c-.13-.08-.13-.21,0-.28l1.79-1a.51.51,0,0,1,.48,0l2.35,1.36a.14.14,0,0,1,0,.27Z"/><path class="cls-33" d="M221,327.31a.57.57,0,0,1-.48,0L218.18,326a.15.15,0,0,1,0-.28l1.8-1a.51.51,0,0,1,.48,0l2.35,1.35a.15.15,0,0,1,0,.28Z"/><path class="cls-33" d="M197,309.75a.57.57,0,0,1-.48,0l-1.79-1c-.14-.08-.14-.2,0-.28l1.79-1a.57.57,0,0,1,.48,0l1.8,1a.15.15,0,0,1,0,.28Z"/><path class="cls-33" d="M200.07,311.54a.57.57,0,0,1-.48,0l-1.8-1a.15.15,0,0,1,0-.28l1.8-1a.57.57,0,0,1,.48,0l1.8,1a.15.15,0,0,1,0,.28Z"/><path class="cls-33" d="M203.17,313.33a.57.57,0,0,1-.48,0l-1.8-1c-.13-.08-.13-.21,0-.28l1.8-1a.57.57,0,0,1,.48,0l1.79,1c.13.07.13.2,0,.28Z"/><path class="cls-33" d="M206.26,315.11a.49.49,0,0,1-.47,0l-1.8-1a.14.14,0,0,1,0-.27l1.8-1a.49.49,0,0,1,.47,0l1.8,1a.14.14,0,0,1,0,.27Z"/><path class="cls-33" d="M209.36,316.9a.51.51,0,0,1-.48,0l-1.8-1a.14.14,0,0,1,0-.27l1.8-1a.51.51,0,0,1,.48,0l1.8,1a.14.14,0,0,1,0,.27Z"/><path class="cls-33" d="M212.46,318.69a.57.57,0,0,1-.48,0l-1.8-1a.15.15,0,0,1,0-.28l1.8-1a.51.51,0,0,1,.48,0l1.79,1c.14.08.14.2,0,.28Z"/><path class="cls-33" d="M215.56,320.48a.57.57,0,0,1-.48,0l-1.8-1c-.13-.08-.13-.2,0-.27l1.8-1a.51.51,0,0,1,.48,0l1.79,1c.13.07.13.19,0,.27Z"/><path class="cls-33" d="M224.17,325.45a.51.51,0,0,1-.48,0l-7.31-4.22a.14.14,0,0,1,0-.27l1.8-1a.51.51,0,0,1,.48,0l7.31,4.21a.15.15,0,0,1,0,.28Z"/><path class="cls-33" d="M226.79,316a.51.51,0,0,1-.48,0l-1.8-1c-.13-.07-.13-.19,0-.27l1.8-1a.51.51,0,0,1,.48,0l1.8,1c.13.08.13.2,0,.27Z"/><path class="cls-33" d="M194.56,291.71a.51.51,0,0,1-.48,0l-1.8-1a.14.14,0,0,1,0-.27l1.8-1a.51.51,0,0,1,.48,0l1.8,1a.14.14,0,0,1,0,.27Z"/><path class="cls-33" d="M200.76,295.29a.57.57,0,0,1-.48,0l-1.8-1a.15.15,0,0,1,0-.28l1.8-1a.51.51,0,0,1,.48,0l1.79,1a.15.15,0,0,1,0,.28Z"/><path class="cls-33" d="M203.85,297.08a.57.57,0,0,1-.48,0l-1.8-1a.15.15,0,0,1,0-.28l1.8-1a.57.57,0,0,1,.48,0l1.8,1a.15.15,0,0,1,0,.28Z"/><path class="cls-33" d="M207,298.86a.51.51,0,0,1-.48,0l-1.8-1a.15.15,0,0,1,0-.28l1.8-1a.57.57,0,0,1,.48,0l1.8,1a.15.15,0,0,1,0,.28Z"/><path class="cls-33" d="M210.05,300.65a.51.51,0,0,1-.48,0l-1.8-1a.14.14,0,0,1,0-.27l1.8-1a.57.57,0,0,1,.48,0l1.79,1c.14.07.14.2,0,.27Z"/><path class="cls-33" d="M215.1,303.57a.49.49,0,0,1-.47,0l-1.8-1c-.14-.07-.14-.2,0-.27l1.8-1a.49.49,0,0,1,.47,0l1.8,1a.14.14,0,0,1,0,.27Z"/><path class="cls-33" d="M218.2,305.36a.51.51,0,0,1-.48,0l-1.79-1c-.14-.07-.14-.2,0-.27l1.79-1a.51.51,0,0,1,.48,0l1.8,1a.14.14,0,0,1,0,.27Z"/><path class="cls-33" d="M221.3,307.15a.57.57,0,0,1-.48,0l-1.8-1c-.13-.07-.13-.2,0-.28l1.8-1a.51.51,0,0,1,.48,0l1.8,1c.13.08.13.21,0,.28Z"/><path class="cls-33" d="M224.4,308.94a.57.57,0,0,1-.48,0l-1.8-1a.15.15,0,0,1,0-.28l1.8-1a.51.51,0,0,1,.48,0l1.79,1c.14.08.14.2,0,.28Z"/><path class="cls-33" d="M229.35,311.8a.51.51,0,0,1-.48,0l-1.79-1a.14.14,0,0,1,0-.27l1.79-1a.51.51,0,0,1,.48,0l1.8,1a.14.14,0,0,1,0,.27Z"/><path class="cls-33" d="M232.45,313.59a.57.57,0,0,1-.48,0l-1.8-1a.15.15,0,0,1,0-.28l1.8-1a.57.57,0,0,1,.48,0l1.8,1a.15.15,0,0,1,0,.28Z"/><path class="cls-33" d="M235.55,315.38a.57.57,0,0,1-.48,0l-1.8-1a.15.15,0,0,1,0-.28l1.8-1a.57.57,0,0,1,.48,0l1.8,1a.15.15,0,0,1,0,.28Z"/><path class="cls-33" d="M238.64,317.16a.49.49,0,0,1-.47,0l-1.8-1a.15.15,0,0,1,0-.28l1.8-1a.55.55,0,0,1,.47,0l1.8,1a.15.15,0,0,1,0,.28Z"/><path class="cls-33" d="M260.1,329.55a.51.51,0,0,1-.48,0l-1.8-1a.14.14,0,0,1,0-.27l1.8-1a.51.51,0,0,1,.48,0l1.8,1a.14.14,0,0,1,0,.27Z"/><path class="cls-33" d="M263.19,331.34a.55.55,0,0,1-.47,0l-1.8-1a.14.14,0,0,1,0-.27l1.8-1a.49.49,0,0,1,.47,0l1.8,1c.13.07.13.19,0,.27Z"/><path class="cls-33" d="M266.29,333.13a.55.55,0,0,1-.47,0l-1.8-1a.15.15,0,0,1,0-.28l1.8-1a.55.55,0,0,1,.47,0l1.8,1a.15.15,0,0,1,0,.28Z"/><path class="cls-33" d="M233.71,320a.57.57,0,0,1-.48,0l-5.62-3.25a.14.14,0,0,1,0-.27l1.8-1a.51.51,0,0,1,.48,0l5.62,3.24a.15.15,0,0,1,0,.28Z"/><polygon class="cls-33" points="256.3 327.15 247.41 322.02 249.64 320.73 258.52 325.86 256.3 327.15"/><path class="cls-34" d="M215.25,258.18a2.92,2.92,0,0,1,2.64,0l11.67,6.73a.81.81,0,0,1,0,1.53l-26.37,15.27a3,3,0,0,1-2.65,0L188.88,275a.81.81,0,0,1,0-1.53Z"/><path class="cls-33" d="M188.88,275l11.66,6.74a3,3,0,0,0,2.65,0l26.37-15.27a1,1,0,0,0,.54-.74h0v1.8a.93.93,0,0,1-.54.77l-26.37,15.27a2.94,2.94,0,0,1-2.65,0l-11.66-6.74a.91.91,0,0,1-.55-.76v-1.83h0A.93.93,0,0,0,188.88,275Z"/><polygon class="cls-35" points="190.02 272.78 204.33 281.04 229.44 266.5 215.13 258.24 190.02 272.78"/><polygon class="cls-36" points="204.08 280.9 204.33 281.04 229.44 266.5 229.19 266.36 204.08 280.9"/><polygon class="cls-37" points="204.33 282.15 229.44 267.61 229.44 266.5 204.33 281.04 204.33 282.15"/><path class="cls-38" d="M335.56,337.32v0Z"/><path class="cls-39" d="M342.21,332a6.63,6.63,0,0,0-.45-2.39h0c-.72-2.59-3.63-2.42-4.49-2a5.58,5.58,0,0,0-1.71,1.48v2.44l1.08.56a4,4,0,0,1,2-2.37,1.5,1.5,0,0,1,.68-.18,4.17,4.17,0,0,1,.88,2.45c0,1.41-.92,5.15-3,6.21a2.93,2.93,0,0,1-.44.18l-.07,0c-1,.23-1.08-.85-1.08-1.05v2.91l1.08.56s.47.17,1.69-.53S342.34,335.73,342.21,332Z"/><g class="cls-40"><path class="cls-41" d="M336.64,337.88v0Z"/><path class="cls-42" d="M342.21,332c-.15-4.47-2.84-4.34-3.86-3.81a5.58,5.58,0,0,0-1.71,1.48v2.44a4,4,0,0,1,2-2.37c1.6-.83,2.62,1.42,2.64,2.83s-.92,5.15-3,6.21c-1.51.77-1.59-.61-1.59-.85v2.91s.47.17,1.69-.53S342.34,335.73,342.21,332Z"/></g><path class="cls-43" d="M338.23,338.73c2.09-1.06,3-4.8,3-6.21,0-1.2-.76-3-2-3a4.17,4.17,0,0,1,.88,2.45c0,1.41-.92,5.15-3,6.21a2.93,2.93,0,0,1-.44.18C336.84,338.78,337.2,339.25,338.23,338.73Z"/><path class="cls-44" d="M338,326.85c0-1.42-.94-2.85-2.81-3.93a15.08,15.08,0,0,0-13.6,0c-1.88,1.08-2.82,2.51-2.82,3.93v17.43a3.46,3.46,0,0,0,.41,1.6h0c.07.18.46,1,.56,1.16a5.93,5.93,0,0,0,2.2,2,14.28,14.28,0,0,0,12.9,0,5.65,5.65,0,0,0,2.28-2.21c.07-.12.52-1.05.57-1.18h0a3.36,3.36,0,0,0,.31-1.41Z"/><path class="cls-45" d="M328.36,321.3a14,14,0,0,0-6.8,1.62c-1.88,1.08-2.82,2.51-2.82,3.93s.94,2.84,2.82,3.92a15,15,0,0,0,13.6,0c1.87-1.08,2.81-2.5,2.81-3.92s-.94-2.85-2.81-3.93A14,14,0,0,0,328.36,321.3Z"/><path class="cls-38" d="M328.36,321.56a13.26,13.26,0,0,0-6.47,1.55c-1.79,1-2.68,2.38-2.68,3.74s.89,2.7,2.68,3.73a14.28,14.28,0,0,0,12.94,0c1.79-1,2.68-2.38,2.68-3.73s-.89-2.71-2.68-3.74A13.26,13.26,0,0,0,328.36,321.56Z"/><path class="cls-46" d="M328.36,321.56a13.26,13.26,0,0,0-6.47,1.55c-1.79,1-2.68,2.38-2.68,3.74s.89,2.7,2.68,3.73a14.28,14.28,0,0,0,12.94,0c1.79-1,2.68-2.38,2.68-3.73s-.89-2.71-2.68-3.74A13.26,13.26,0,0,0,328.36,321.56Z"/><path class="cls-47" d="M334.83,326.11a14.28,14.28,0,0,0-12.94,0,5.73,5.73,0,0,0-2.31,2.24,5.72,5.72,0,0,0,2.31,2.23,14.28,14.28,0,0,0,12.94,0,5.62,5.62,0,0,0,2.3-2.23A5.64,5.64,0,0,0,334.83,326.11Z"/><path class="cls-48" d="M321.89,327.53a14.36,14.36,0,0,1,12.94,0,6.38,6.38,0,0,1,1.84,1.53,4.07,4.07,0,0,0,.46-.71,5.64,5.64,0,0,0-2.3-2.24,14.28,14.28,0,0,0-12.94,0,5.73,5.73,0,0,0-2.31,2.24,4.84,4.84,0,0,0,.47.71A6.38,6.38,0,0,1,321.89,327.53Z"/><path class="cls-49" d="M335.16,348.21a15.08,15.08,0,0,1-13.6,0,6,6,0,0,1-2.41-2.33h0c.07.18.46,1,.56,1.16a5.93,5.93,0,0,0,2.2,2,14.28,14.28,0,0,0,12.9,0,5.65,5.65,0,0,0,2.28-2.21c.07-.12.52-1.05.57-1.18h0A5.84,5.84,0,0,1,335.16,348.21Z"/><path class="cls-50" d="M173,302.13s2.88-2.25,9.53-2.88,6.2-.42,11.84.33,10.63,1.68,11.51,2.55,4.11,1.51,2.79,2.83-4.08.31-7.33.81-9.16.63-8.53,2.63,7.65,1,9.28,2,3.39,2,0,2.63-13.41.63-17.43.63S173,302.13,173,302.13Z"/><path class="cls-51" d="M205.91,302.13c-.88-.87-5.87-1.79-11.51-2.55-5.45-.73-5.22-.94-11.17-.39.57,1.11,1.78,2.35,4.6,2.65,4.22.45,13,.21,18.49.6A2,2,0,0,1,205.91,302.13Z"/><path class="cls-52" d="M189.39,256.06c-.62-1.3-3.41-3.84-4.42-3.81a.57.57,0,0,0-.39.13c-.79.65-.55,5.24-.18,6.48s2.31,3.26,3.69,3.23h.15a1.37,1.37,0,0,0,.95-.81A6.79,6.79,0,0,0,189.39,256.06Zm-.92,4.82c-.17.3-.3.38-.34.38h-.06c-.88,0-2.59-1.67-2.88-2.64a16.18,16.18,0,0,1-.13-5.55,10.18,10.18,0,0,1,3.59,3.33A6.08,6.08,0,0,1,188.47,260.88Z"/><path class="cls-53" d="M188.65,256.41a10.18,10.18,0,0,0-3.59-3.33,16.18,16.18,0,0,0,.13,5.55c.29,1,2,2.66,2.88,2.64h.06s.17-.08.34-.38A6.08,6.08,0,0,0,188.65,256.41Z"/><path class="cls-50" d="M136.2,277s5.93-.08,9-3.85,2.75-11,1.9-14.5-.54-15.59,3.23-20.45,12.79-8.47,21.49-8.33,15.08,8.09,15.79,13.85,1.59,9,.11,10.87-1.64,3.22-1.94,5.71-3.94,8.88-5.11,11.27-3.72,3.72-6.37,4.8-6.57,1.18-7,6.05-3.44,12.14-3.44,12.14,2.81-.4-.08.52-16.9,5.21-24.62,0S136.2,277,136.2,277Z"/><path class="cls-51" d="M175.61,271.23s-.45.36-1.34-.16-1-3.27-.13-6.48a8.75,8.75,0,0,1,3-4.22,5.63,5.63,0,0,0-3,.83c-2.41,1.42-7.75,9.82-9.49,10.87a2.16,2.16,0,0,1-.37.16c.77,8.09-2.6,18.57-4.65,24,2-.48,3.5-.95,4.26-1.19,2.89-.92.08-.52.08-.52s3-7.27,3.44-12.14,4.36-5,7-6.05l1.24-.53A21.05,21.05,0,0,1,175.61,271.23Z"/><path class="cls-13" d="M183.05,267a15.11,15.11,0,0,0-1.85.88c-.21.13-.69,1-2-.4-.81-.88-.37,3.52-.07,3.85s2.88-.92,3.56-1.92S183.71,267.11,183.05,267Z"/><polygon class="cls-52" points="189.41 256.89 178.66 260.42 178.39 260.97 189.59 257.93 189.41 256.89"/><path d="M190.78,239.86c-.57-2.41-5.45-13.76-17.36-14.76s-22.52,3.67-26.82,10.57-3,15-2.26,21.22a33.7,33.7,0,0,0,3.14,10.71s1.15,4.07,9.23,4.64,6.64,2.22,10.53-3.12,6.77-8.19,7.57-8.75,2.74,0,2.74,0l.8.19c-.78,2-2.23,8.29-4.11,12.65-.86,2-2.82,3.07-3.06,4.09l-1.45.83c-.51,3.44,5.9,5.88,7.37,5.56,3.93-.83,5-7.49,4.75-10.58a2.28,2.28,0,0,0-1.15-1.55s-3.24-1.46-.24-10.5a2,2,0,0,0,1.12-1.27l-.89.21a11.75,11.75,0,0,1,1.92-4.49c1.53-1.83,2.49-.78,2.71-4s.21-5.43,1.31-6.28S191.36,242.27,190.78,239.86Z"/><path class="cls-54" d="M173.79,261.27a44.54,44.54,0,0,1-29.52-5c0,.2,0,.4.07.59a33.7,33.7,0,0,0,3.14,10.71s1.15,4.07,9.23,4.64,6.64,2.22,10.53-3.12A63.59,63.59,0,0,1,173.79,261.27Z"/><path class="cls-55" d="M165.61,287.64s-12.72-2.38-19.4-4.6-4.7-7.22-4.7-7.22-11.76-2.58-15.26-1.29c-28.9,10.63-20,64.73-17.49,77.74s.55,26.38.55,26.38c28.26,20.53,58.29,24.94,63.67,14.94s-8.17-27.38-8.17-27.38.26-25.24,8.38-44.84c4.56-11,10.57-19.87,5-24.85C174.79,293.47,165.61,287.64,165.61,287.64Z"/><path class="cls-56" d="M173.78,320l-8.82-6.7a82,82,0,0,0-7,21.66c-1.81,11.49-7.9,8.39-19.53,10.67-6.95,1.37-14.39,22.53-18.56,40,24.77,14.49,48.38,16.78,53.09,8,5.38-10-8.17-27.38-8.17-27.38s.26-25.24,8.38-44.84C173.38,320.9,173.58,320.43,173.78,320Z"/><path class="cls-50" d="M213.77,336.06l8-5.41s5.14-4.23,8.6-4.6,16,.75,19.33,3.31,2.9,4.1.44,6.33-5.25,2.45-9.16,3.6,1.13.86-5,1.32-16.23,4-16.23,4Z"/><path class="cls-51" d="M250.47,330c-1.63,3.87-15.52,6.87-19.81,6.63-4.5-.26-10.11,2.46-10.11,2.46l-3.82,1.19,3.06,4.33s10.1-3.51,16.23-4,1.09-.16,5-1.32,6.69-1.37,9.16-3.6C252.44,333.64,253,332.17,250.47,330Z"/><path class="cls-55" d="M162.8,316.08c-1.88-5,.22-16.43,8.15-19.56,8.52-3.37,13.93,4.27,18.22,19,4.49,15.43,5.34,23.58,5.34,23.58l24.08-7.57s7,.35,7.58,11c0,0-28.61,16.37-38.32,19.19S167.54,328.69,162.8,316.08Z"/><path class="cls-57" d="M122.54,432.27s10,4.15,15.26,5.91,11.34,3,16.85-4.8,8.3-14.77,8.14-26.19S151.93,361,151.93,361s-6.22-18.45-9.26-23.16-4.63-5-7.83-6.47-14.53-6.79-21.32-11.5-14.3-10.3-16.21-11.26-6.31,1.12-8.59,5.71S86,328,85.89,337.71s-1.12,24.92.48,34.58a158.63,158.63,0,0,0,8.94,31.87c4,9.66,13.58,19.24,18.29,22.84A42.16,42.16,0,0,0,122.54,432.27Z"/><path class="cls-58" d="M155.6,432c4.88-7.28,7.34-14.07,7.19-24.81-.15-11.42-10.86-46.16-10.86-46.16s-6.22-18.45-9.26-23.16-4.63-5-7.83-6.47-14.53-6.79-21.32-11.5-14.3-10.3-16.21-11.26a2.07,2.07,0,0,0-.58-.18c-2.22,1.86-5.69,5-6.1,6.87a15.47,15.47,0,0,0,4.79,4.28c3.37,2,25,15.3,31.21,17.75s11.89,6.51,15.3,13.77c4,8.46,12.34,34.77,14.17,41.61,0,0,5.06,16.61,4.49,23.86C160.19,421.81,158.05,427.31,155.6,432Z"/><path class="cls-59" d="M154.25,408.79c-1-8.07-10.06-39.38-12.14-44.65s-7.83-15.57-9.9-17-12.94-5.91-20.21-10.06a236.36,236.36,0,0,1-21.8-14.94,2.93,2.93,0,0,0-3.41-.39,140.79,140.79,0,0,0-.9,16c-.17,9.74-1.12,24.92.48,34.58a158.63,158.63,0,0,0,8.94,31.87c4,9.66,13.58,19.24,18.29,22.84a42.16,42.16,0,0,0,8.94,5.27s10,4.15,15.26,5.91a23,23,0,0,0,5.94,1.3,10.36,10.36,0,0,0,5.88-4.73C153.21,428.6,155.21,416.85,154.25,408.79Z"/><path class="cls-60" d="M123.31,429.44,125,439s-2.61,1.45-3.6-2.85A6.94,6.94,0,0,1,123.31,429.44Z"/><path class="cls-61" d="M121.39,436.17a7,7,0,0,1,1.75-6.57c-1.14-.48-7.09-3-10.86-6.54a9.62,9.62,0,0,0-1.22,6.67c.64,4.07,2.62,4.61,2.62,4.61l9.19,4.55h0A4.35,4.35,0,0,1,121.39,436.17Z"/><path class="cls-62" d="M156.31,416.58s18.92-19.2,23.05-23,14-11.46,19.21-8.63,6.37,28.42,6.37,28.42,1.6,1.88,4.86.94,2.32-3.19,2.32-3.19.65-27.76-6.45-32.84-17-.14-24.71,5.66-21.39,19.42-21.39,19.42-3,4.2-3.69,8S156.31,416.58,156.31,416.58Z"/><path class="cls-63" d="M279.49,370.3a2.44,2.44,0,0,1-2.2,0l-28.42-16.41a.67.67,0,0,1,0-1.27l33.5-19.34a2.44,2.44,0,0,1,2.2,0L313,349.69a.67.67,0,0,1,0,1.27Z"/><path class="cls-19" d="M286.75,351c-4.4,3.52-10.83,5.25-14.36,3.87s-3.1-7.21,1.3-10.73,11.11-3.39,14.65-2S291.15,347.48,286.75,351Z"/><path class="cls-19" d="M289.05,343.93l-.45-.71c.18-.11,17.45-11.19,21.1-13.59l.25-.17c2.51-1.64,6-3.91,6.09-6.41.06-1.15-.61-2.31-2-3.44-2.38-1.93-6.91-1.8-11.7-1.66-6,.18-12.87.37-17.35-3.44a4,4,0,0,1-1.57-2.77c-.17-2.33,2-4.82,4.35-7.45,2.71-3.07,5.79-6.56,5.21-10.1-.4-2.49-2.5-4.8-6.42-7.08l.42-.72c4.15,2.41,6.38,4.91,6.83,7.66.64,3.94-2.58,7.58-5.42,10.79-2.2,2.5-4.28,4.85-4.14,6.84a3.2,3.2,0,0,0,1.28,2.2c4.23,3.59,10.9,3.4,16.79,3.23,4.95-.14,9.63-.27,12.24,1.86,1.61,1.3,2.38,2.69,2.31,4.12-.15,2.93-3.8,5.33-6.46,7.07l-.26.17C306.5,332.73,289.23,343.81,289.05,343.93Z"/><path class="cls-31" d="M218.15,164.81c0-1.6,1.13-2.25,2.52-1.45l103.75,59.9a5.6,5.6,0,0,1,2.52,4.36v81.15c0,1.6-1.13,2.25-2.51,1.45L220.67,250.33a5.6,5.6,0,0,1-2.53-4.37Z"/><polygon class="cls-64" points="218.15 238.84 218.15 165.78 326.94 228.59 326.94 301.65 218.15 238.84"/><polygon class="cls-65" points="219.59 238 219.6 168.29 325.49 229.43 325.49 299.14 219.59 238"/><path class="cls-33" d="M326.93,308.77V227.62a5.6,5.6,0,0,0-2.52-4.36l-103.75-59.9a1.76,1.76,0,0,0-1.77-.18h0l3.5-2a1.75,1.75,0,0,1,1.81.15L328,221.23a5.59,5.59,0,0,1,2.52,4.37v81.14a1.74,1.74,0,0,1-.79,1.66l-3.45,2h0A1.81,1.81,0,0,0,326.93,308.77Z"/><path class="cls-31" d="M234.36,292.53l19.34-8.69a21,21,0,0,0,9.3-9.07l21.61,12.47A27.17,27.17,0,0,1,278,298s-11.87,9.2-15,11.29a6.67,6.67,0,0,1-6.47.32l-22.22-13.34s-1.24-.6-1.52-1.52l-.07-.3C232.63,293.28,234.36,292.53,234.36,292.53Z"/><path class="cls-33" d="M234.35,296.27l22.22,13.34a6.67,6.67,0,0,0,6.47-.32c3.12-2.09,15-11.29,15-11.29a27.17,27.17,0,0,0,6.58-10.76l1.86,1.08A22.17,22.17,0,0,1,277.72,300c-13.35,9.58-14.78,10.37-14.78,10.37s-2.27,2-6.42,0-22.3-13.24-22.3-13.24-1.51-.81-1.51-1.6l.06-1.16C232.71,295.48,234.35,296.27,234.35,296.27Z"/><path class="cls-66" d="M263,274.77l21.61,12.47a26.39,26.39,0,0,1-5,9L256,282.55A21.35,21.35,0,0,0,263,274.77Z"/><polygon class="cls-67" points="249.2 198.5 234.59 190.06 234.59 189.11 249.2 197.54 249.2 198.5"/><polygon class="cls-34" points="299.92 227.78 251.4 199.77 251.4 198.81 299.92 226.82 299.92 227.78"/><polygon class="cls-34" points="255.58 196.28 228.92 180.89 228.92 179.93 255.58 195.32 255.58 196.28"/><polygon class="cls-34" points="284.7 213.09 258.05 197.7 258.05 196.75 284.7 212.13 284.7 213.09"/><polygon class="cls-68" points="258.43 206.79 243.82 198.35 243.82 197.4 258.43 205.83 258.43 206.79"/><polygon class="cls-34" points="309.14 236.07 260.63 208.06 260.63 207.11 309.14 235.11 309.14 236.07"/><polygon class="cls-34" points="230.61 187.76 228.88 186.76 228.88 185.81 230.61 186.81 230.61 187.76"/><polygon class="cls-34" points="230.61 190.73 228.88 189.73 228.88 188.77 230.61 189.77 230.61 190.73"/><polygon class="cls-34" points="230.61 193.69 228.88 192.69 228.88 191.74 230.61 192.74 230.61 193.69"/><polygon class="cls-34" points="230.61 196.66 228.88 195.66 228.88 194.7 230.61 195.7 230.61 196.66"/><polygon class="cls-34" points="230.61 199.62 228.88 198.62 228.88 197.67 230.61 198.67 230.61 199.62"/><polygon class="cls-34" points="230.61 202.59 228.88 201.59 228.88 200.63 230.61 201.63 230.61 202.59"/><polygon class="cls-34" points="230.61 205.55 228.88 204.55 228.88 203.6 230.61 204.6 230.61 205.55"/><polygon class="cls-34" points="230.61 208.52 228.88 207.52 228.88 206.56 230.61 207.56 230.61 208.52"/><polygon class="cls-34" points="230.61 211.48 228.88 210.48 228.88 209.53 230.61 210.53 230.61 211.48"/><polygon class="cls-34" points="230.61 214.45 228.88 213.45 228.88 212.49 230.61 213.49 230.61 214.45"/><polygon class="cls-34" points="230.61 217.41 228.88 216.41 228.88 215.46 230.61 216.46 230.61 217.41"/><polygon class="cls-34" points="230.61 220.38 228.88 219.38 228.88 218.42 230.61 219.42 230.61 220.38"/><polygon class="cls-34" points="230.61 223.34 228.88 222.34 228.88 221.39 230.61 222.39 230.61 223.34"/><polygon class="cls-34" points="230.61 226.31 228.88 225.31 228.88 224.35 230.61 225.35 230.61 226.31"/><polygon class="cls-34" points="230.61 229.27 228.87 228.27 228.87 227.31 230.61 228.32 230.61 229.27"/><polygon class="cls-34" points="230.61 232.24 228.88 231.24 228.88 230.28 230.61 231.28 230.61 232.24"/><polygon class="cls-34" points="230.61 235.2 228.88 234.2 228.87 233.25 230.61 234.25 230.61 235.2"/><polygon class="cls-34" points="230.61 238.17 228.87 237.17 228.88 236.21 230.61 237.21 230.61 238.17"/><polygon class="cls-68" points="258.43 209.75 243.82 201.32 243.82 200.36 258.43 208.8 258.43 209.75"/><polygon class="cls-34" points="291.44 228.81 260.63 211.03 260.63 210.07 291.44 227.86 291.44 228.81"/><polygon class="cls-69" points="267.79 218.12 253.18 209.69 253.18 208.73 267.79 217.17 267.79 218.12"/><polygon class="cls-69" points="300.66 237.1 270 219.4 270 218.44 300.66 236.15 300.66 237.1"/><polygon class="cls-34" points="274.82 225.15 260.21 216.71 260.21 215.76 274.82 224.19 274.82 225.15"/><polygon class="cls-34" points="305.35 242.77 277.02 226.42 277.02 225.46 305.35 241.82 305.35 242.77"/><polygon class="cls-70" points="253.71 215.93 243.37 209.96 243.37 209 253.71 214.97 253.71 215.93"/><polygon class="cls-34" points="308.7 247.67 255.92 217.2 255.92 216.25 308.7 246.72 308.7 247.67"/><polygon class="cls-70" points="251.12 217.4 243.37 212.92 243.37 211.97 251.12 216.44 251.12 217.4"/><polygon class="cls-34" points="296.37 243.52 253.33 218.67 253.33 217.71 296.37 242.56 296.37 243.52"/><polygon class="cls-67" points="249.57 219.47 243.37 215.89 243.37 214.93 249.57 218.51 249.57 219.47"/><polygon class="cls-34" points="302.58 250.07 251.78 220.74 251.78 219.78 302.58 249.11 302.58 250.07"/><polygon class="cls-68" points="257.98 227.28 243.37 218.85 243.37 217.9 257.98 226.33 257.98 227.28"/><polygon class="cls-34" points="302.58 253.03 259.28 228.04 259.28 227.08 302.58 252.08 302.58 253.03"/><polygon class="cls-68" points="265.86 234.8 243.37 221.82 243.37 220.86 265.86 233.84 265.86 234.8"/><polygon class="cls-69" points="288.38 247.8 268.07 236.07 268.07 235.12 288.38 246.85 288.38 247.8"/><polygon class="cls-67" points="249.2 228.15 234.59 219.71 234.59 218.76 249.2 227.19 249.2 228.15"/><polygon class="cls-34" points="299.92 257.43 251.4 229.42 251.4 228.46 299.92 256.47 299.92 257.43"/><polygon class="cls-68" points="257.32 235.8 242.71 227.37 242.71 226.41 257.32 234.84 257.32 235.8"/><polygon class="cls-34" points="299.92 260.39 259.53 237.07 259.53 236.12 299.92 259.44 299.92 260.39"/><polygon class="cls-68" points="273.99 248.39 259.38 239.96 259.38 239 273.99 247.43 273.99 248.39"/><polygon class="cls-71" points="299.92 263.36 276.2 249.66 276.2 248.71 299.92 262.4 299.92 263.36"/><polygon class="cls-68" points="267.79 247.77 259.38 242.92 259.38 241.96 267.79 246.82 267.79 247.77"/><polygon class="cls-34" points="299.92 266.32 270 249.05 270 248.09 299.92 265.37 299.92 266.32"/><polygon class="cls-67" points="271.57 252.92 259.38 245.88 259.38 244.93 271.57 251.97 271.57 252.92"/><polygon class="cls-34" points="299.92 269.29 273.78 254.19 273.78 253.24 299.92 268.33 299.92 269.29"/><polygon class="cls-68" points="266.96 253.22 259.38 248.85 259.38 247.9 266.96 252.27 266.96 253.22"/><polygon class="cls-34" points="299.92 272.25 269.17 254.5 269.17 253.54 299.92 271.3 299.92 272.25"/><polygon class="cls-68" points="269.17 257.46 259.38 251.81 259.38 250.86 269.17 256.51 269.17 257.46"/><polygon class="cls-34" points="299.92 275.22 271.37 258.74 271.37 257.78 299.92 274.26 299.92 275.22"/><polygon class="cls-68" points="273.99 263.21 259.38 254.78 259.38 253.82 273.99 262.26 273.99 263.21"/><polygon class="cls-34" points="299.92 278.18 276.2 264.49 276.2 263.53 299.92 277.23 299.92 278.18"/><path class="cls-72" d="M344.89,271.59a15.29,15.29,0,0,0,6.88,11.91l24.61,14.21c3.79,2.18,6.88.39,6.88-4V265.32a15.23,15.23,0,0,0-6.88-11.91L351.77,239.2c-3.78-2.19-6.88-.4-6.88,4Z"/><path class="cls-73" d="M383.26,293.74V265.32a15.23,15.23,0,0,0-6.88-11.91L351.77,239.2a5.16,5.16,0,0,0-4.38-.7h0l4.14-2.54c1.26-.79,3-.72,5,.4l24.61,14.21A15.3,15.3,0,0,1,388,262.48V290.9c0,2.24-.81,3.8-2.11,4.5l-4.55,2.72h0C382.52,297.38,383.26,295.87,383.26,293.74Z"/><path class="cls-74" d="M352.42,264.33v-2.74a3,3,0,0,0,1.09.38.8.8,0,0,0,.64-.33,2.08,2.08,0,0,0,.36-1,14.84,14.84,0,0,0,.08-1.86,15.86,15.86,0,0,1,.18-3,1.51,1.51,0,0,1,.64-1,1.94,1.94,0,0,1,1.36-.05,8.18,8.18,0,0,1,1.9.89l.52.3v2.73a5.35,5.35,0,0,0-1.41-.67.44.44,0,0,0-.46.17,1.78,1.78,0,0,0-.15.91c0,.48,0,1.37-.09,2.68a6.37,6.37,0,0,1-.25,1.69,2,2,0,0,1-.53.85,2,2,0,0,1-1,.38,8.33,8.33,0,0,1,1,1.46,6.38,6.38,0,0,1,.56,1.59,11.46,11.46,0,0,1,.26,2.14c.05,1.29.07,2.11.07,2.46a3.29,3.29,0,0,0,.16,1.14,2.37,2.37,0,0,0,.48.73,7.41,7.41,0,0,0,1.39,1v2.74l-.52-.31a11.82,11.82,0,0,1-2.05-1.42,6.05,6.05,0,0,1-1.2-1.51,5.46,5.46,0,0,1-.66-1.79,17,17,0,0,1-.17-2.75,15.49,15.49,0,0,0-.16-2.82,4,4,0,0,0-2-2.92Z"/><path class="cls-74" d="M375.2,277.48a2.64,2.64,0,0,0-1.09-.37.76.76,0,0,0-.63.32,2.4,2.4,0,0,0-.37,1,14.53,14.53,0,0,0-.08,1.85,17.28,17.28,0,0,1-.17,3,1.5,1.5,0,0,1-.64,1.05,1.94,1.94,0,0,1-1.36.05,8.23,8.23,0,0,1-1.9-.89l-.53-.31v-2.74a4.94,4.94,0,0,0,1.39.65.52.52,0,0,0,.48-.17,1.84,1.84,0,0,0,.16-.9c0-.46,0-1.33.08-2.61a6.16,6.16,0,0,1,.27-1.75,2,2,0,0,1,.58-.88,1.72,1.72,0,0,1,.92-.34,9.87,9.87,0,0,1-1.07-1.69,8,8,0,0,1-.63-2.28c-.07-.58-.12-1.78-.16-3.61a4.19,4.19,0,0,0-.13-1.22,2,2,0,0,0-.45-.7,7.34,7.34,0,0,0-1.44-1v-2.73l.53.3A12.23,12.23,0,0,1,371,263a6.25,6.25,0,0,1,1.19,1.51,5.67,5.67,0,0,1,.66,1.8A16.85,16.85,0,0,1,373,269a17,17,0,0,0,.15,2.82,4.78,4.78,0,0,0,.67,1.69,4.55,4.55,0,0,0,1.35,1.23Z"/><path class="cls-75" d="M286.13,121A15.26,15.26,0,0,0,293,132.92l24.61,14.21c3.78,2.18,6.87.39,6.87-4V114.74a15.28,15.28,0,0,0-6.87-11.92L293,88.62c-3.79-2.19-6.88-.4-6.88,4Z"/><path class="cls-76" d="M324.49,143.16V114.74a15.28,15.28,0,0,0-6.87-11.92L293,88.62a5.19,5.19,0,0,0-4.39-.7h0l4.15-2.54c1.25-.8,3-.72,5,.4L322.35,100a15.27,15.27,0,0,1,6.88,11.91v28.42c0,2.24-.82,3.8-2.12,4.49l-4.55,2.73h0C323.75,146.8,324.49,145.29,324.49,143.16Z"/><path class="cls-74" d="M299.18,123.35l-7.88-11.11v-3.63l7.88-2v4.28l-5.5.85,5.5,7.34Z"/><path class="cls-74" d="M301.6,127.7l2.84-21.11,2.55,1.47-2.87,21.09Z"/><path class="cls-74" d="M309.08,129.08v-4.25l5.5-1-5.5-7.28v-4.21L317,123.46v3.6Z"/><path class="cls-77" d="M225,143.21a15.28,15.28,0,0,0,6.87,11.92l24.61,14.2c3.78,2.19,6.88.4,6.88-4V137A15.26,15.26,0,0,0,256.48,125l-24.61-14.21c-3.78-2.18-6.87-.39-6.87,4Z"/><path class="cls-78" d="M263.36,165.36V137A15.26,15.26,0,0,0,256.48,125l-24.61-14.21a5.12,5.12,0,0,0-4.38-.69h0l4.14-2.54c1.26-.8,3-.73,5,.4l24.61,14.21a15.28,15.28,0,0,1,6.88,11.91v28.42c0,2.24-.81,3.8-2.11,4.49l-4.55,2.73h0C262.62,169,263.36,167.49,263.36,165.36Z"/><path class="cls-74" d="M229.38,141V124.71l3.67,2.13a15.51,15.51,0,0,1,2.73,1.82,7.29,7.29,0,0,1,1.64,2.54,9.43,9.43,0,0,1,.65,3.55,5.62,5.62,0,0,1-.37,2.3,2,2,0,0,1-1,1,1.81,1.81,0,0,1-1.19.08,12.17,12.17,0,0,1-2.38-1.14l-1.49-.86v6.14Zm2.29-12.2v4.62l1.25.72a5.32,5.32,0,0,0,1.82.79.77.77,0,0,0,.71-.39,2,2,0,0,0,.26-1.11,4,4,0,0,0-.36-1.68,3.54,3.54,0,0,0-.92-1.25,14.58,14.58,0,0,0-1.65-1.07Z"/><path class="cls-74" d="M240,147.11V130.83l2.3,1.32v6.41l4.49,2.6v-6.41l2.29,1.32v16.28L246.75,151v-7.12l-4.49-2.59v7.11Z"/><path class="cls-74" d="M251.41,153.72V137.44l3.68,2.12a16.11,16.11,0,0,1,2.73,1.82,7.28,7.28,0,0,1,1.63,2.54,9.24,9.24,0,0,1,.66,3.55,5.4,5.4,0,0,1-.38,2.3,1.93,1.93,0,0,1-1,1,1.87,1.87,0,0,1-1.19.09,12.8,12.8,0,0,1-2.38-1.14l-1.49-.87v6.15Zm2.3-12.2v4.62l1.25.72a4.9,4.9,0,0,0,1.81.79.78.78,0,0,0,.72-.38,2.08,2.08,0,0,0,.26-1.12,3.89,3.89,0,0,0-.37-1.68,3.65,3.65,0,0,0-.91-1.25,13.11,13.11,0,0,0-1.66-1.06Z"/><path class="cls-79" d="M140.13,149.74A15.29,15.29,0,0,0,147,161.65l24.61,14.21c3.78,2.18,6.88.39,6.88-4V143.47a15.29,15.29,0,0,0-6.88-11.92L147,117.35c-3.78-2.19-6.88-.4-6.88,4Z"/><path class="cls-80" d="M178.5,171.89V143.47a15.29,15.29,0,0,0-6.88-11.92L147,117.35a5.16,5.16,0,0,0-4.38-.7h0l4.14-2.54c1.26-.8,3-.72,5,.4l24.61,14.21a15.31,15.31,0,0,1,6.88,11.91v28.42c0,2.24-.81,3.8-2.11,4.5l-4.56,2.72h0C177.76,175.53,178.5,174,178.5,171.89Z"/><path class="cls-74" d="M151.12,144.27l2.15,2.14c-.33,1.41-.88,2.28-1.64,2.61a3.27,3.27,0,0,1-2.91-.52,9.29,9.29,0,0,1-3.58-4.06,13.64,13.64,0,0,1-1.41-6.24q0-3.64,1.42-4.85c.93-.8,2.17-.76,3.7.12a8.65,8.65,0,0,1,3.27,3.47,11.68,11.68,0,0,1,1.12,3.34l-2.19-.57a6.17,6.17,0,0,0-.81-2.26,4.29,4.29,0,0,0-1.5-1.52,1.51,1.51,0,0,0-2,0c-.51.48-.76,1.6-.76,3.34a10.5,10.5,0,0,0,.75,4.37,4.94,4.94,0,0,0,1.94,2.3,1.4,1.4,0,0,0,1.51.12A2.56,2.56,0,0,0,151.12,144.27Z"/><path class="cls-74" d="M154.6,146.9l2.15,1a6.66,6.66,0,0,0,.79,2.57,4.34,4.34,0,0,0,1.6,1.61c.71.41,1.25.52,1.61.32a1.13,1.13,0,0,0,.54-1.1,2.29,2.29,0,0,0-.23-1,4.39,4.39,0,0,0-.79-1.09c-.26-.27-.85-.82-1.77-1.66a12.46,12.46,0,0,1-2.5-2.88,7.15,7.15,0,0,1-1-3.52,3.23,3.23,0,0,1,.47-1.82,1.56,1.56,0,0,1,1.37-.69,4.62,4.62,0,0,1,2.15.74,8.19,8.19,0,0,1,3.1,3,8,8,0,0,1,1.1,3.85L161,145a4.87,4.87,0,0,0-.61-2,3.86,3.86,0,0,0-1.4-1.31,1.86,1.86,0,0,0-1.51-.34c-.23.09-.35.33-.35.71a2.11,2.11,0,0,0,.33,1.07,11,11,0,0,0,2,2.15,20,20,0,0,1,2.38,2.43,7.89,7.89,0,0,1,1.21,2.18,7.52,7.52,0,0,1,.44,2.58,3.73,3.73,0,0,1-.52,2.05,1.64,1.64,0,0,1-1.48.78,5.45,5.45,0,0,1-2.38-.84,8.47,8.47,0,0,1-3.19-3.12A10.83,10.83,0,0,1,154.6,146.9Z"/><path class="cls-74" d="M164.8,152.78l2.15,1a6.71,6.71,0,0,0,.79,2.57,4.34,4.34,0,0,0,1.6,1.61c.71.41,1.24.51,1.61.32a1.13,1.13,0,0,0,.54-1.1,2.44,2.44,0,0,0-.23-1,4.05,4.05,0,0,0-.8-1.09c-.25-.27-.85-.82-1.76-1.66a12.66,12.66,0,0,1-2.5-2.88,7.19,7.19,0,0,1-1-3.53,3.12,3.12,0,0,1,.47-1.81,1.51,1.51,0,0,1,1.37-.69,4.59,4.59,0,0,1,2.15.73,8.37,8.37,0,0,1,3.1,3,7.91,7.91,0,0,1,1.09,3.85l-2.21-1.15a4.82,4.82,0,0,0-.6-2,3.92,3.92,0,0,0-1.4-1.3,1.86,1.86,0,0,0-1.51-.34c-.24.09-.35.32-.35.7a2.11,2.11,0,0,0,.33,1.08,11,11,0,0,0,2,2.15,20.74,20.74,0,0,1,2.38,2.43,7.75,7.75,0,0,1,1.21,2.18,7.47,7.47,0,0,1,.44,2.58,3.65,3.65,0,0,1-.53,2.05,1.62,1.62,0,0,1-1.47.78,5.4,5.4,0,0,1-2.39-.85,8.51,8.51,0,0,1-3.18-3.12A10.6,10.6,0,0,1,164.8,152.78Z"/><path class="cls-81" d="M402.53,325.6a15.23,15.23,0,0,0,6.88,11.91L434,351.72c3.78,2.19,6.88.4,6.88-4V319.33A15.29,15.29,0,0,0,434,307.42l-24.61-14.21c-3.78-2.18-6.88-.39-6.88,4Z"/><path class="cls-82" d="M440.9,347.75V319.33A15.29,15.29,0,0,0,434,307.42l-24.61-14.21a5.14,5.14,0,0,0-4.39-.69h0l4.15-2.54c1.25-.8,3-.73,5,.4l24.61,14.21a15.23,15.23,0,0,1,6.88,11.91v28.42c0,2.24-.81,3.8-2.12,4.49L439,352.14h0C440.16,351.39,440.9,349.88,440.9,347.75Z"/><path class="cls-74" d="M416.09,311l2.59,1.5v9.41a9.34,9.34,0,0,1-.28,2.67,1.82,1.82,0,0,1-1.37,1.3,4,4,0,0,1-2.62-.73,7.64,7.64,0,0,1-2.93-2.93,8.47,8.47,0,0,1-1-4.21l2.45,1.09a6.21,6.21,0,0,0,.32,2,3,3,0,0,0,1.29,1.54c.58.34,1,.39,1.23.14a3.79,3.79,0,0,0,.36-2.17Z"/><path class="cls-74" d="M420.56,325.33l2.48,1a4,4,0,0,0,.64,1.63,4,4,0,0,0,1.35,1.21,2.18,2.18,0,0,0,1.44.43c.22-.06.32-.26.32-.57a1.36,1.36,0,0,0-.17-.64,4.09,4.09,0,0,0-.83-.86A25.47,25.47,0,0,1,422,324a5.15,5.15,0,0,1-1.11-3.06,1.73,1.73,0,0,1,1-1.8c.64-.27,1.63,0,3,.76a9.25,9.25,0,0,1,2.84,2.36,7.57,7.57,0,0,1,1.29,2.87l-2.33-.85a3.29,3.29,0,0,0-.57-1.28,3.59,3.59,0,0,0-1.19-1,2.57,2.57,0,0,0-1.39-.49c-.19,0-.29.18-.29.42a1.11,1.11,0,0,0,.25.65,16.32,16.32,0,0,0,2.31,2.14,14.28,14.28,0,0,1,2.75,2.86,4.68,4.68,0,0,1,.77,2.56A1.87,1.87,0,0,1,428.2,332c-.72.3-1.77,0-3.17-.77a9.52,9.52,0,0,1-3-2.63A8.31,8.31,0,0,1,420.56,325.33Z"/><path class="cls-83" d="M63.9,210.72a15.29,15.29,0,0,0,6.88,11.92l24.61,14.2c3.78,2.19,6.88.4,6.88-4V204.46a15.26,15.26,0,0,0-6.88-11.92l-24.61-14.2c-3.78-2.19-6.88-.4-6.88,4Z"/><path class="cls-84" d="M102.27,232.87V204.46a15.26,15.26,0,0,0-6.88-11.92l-24.61-14.2a5.09,5.09,0,0,0-4.38-.7h0l4.14-2.54c1.26-.8,3-.73,5,.4l24.61,14.21A15.24,15.24,0,0,1,107,201.62V230c0,2.24-.81,3.8-2.11,4.49l-4.56,2.73h0C101.53,236.51,102.27,235,102.27,232.87Z"/><path class="cls-74" d="M67.52,204.88V192.4l1.67,1v4.91l3.29,1.9v-4.92l1.68,1v12.48l-1.67-1v-5.46l-3.28-1.9v5.46Z"/><path class="cls-74" d="M77.75,210.79V200.42L75.29,199v-2.11l6.59,3.81v2.11l-2.45-1.42v10.37Z"/><path class="cls-74" d="M83,213.79V201.31l2.5,1.45L87,212.14l1.49-7.65L91,205.94v12.48l-1.55-.9v-9.83l-1.65,8.88-1.62-.93L84.5,204.86v9.83Z"/><path class="cls-74" d="M92.67,219.41V207l1.68,1v10.27l4.16,2.41v2.1Z"/><path class="cls-85" d="M51.44,264A9,9,0,0,0,55.52,271l14.59,8.43c2.24,1.29,4.07.23,4.07-2.36V260.23a9,9,0,0,0-4.07-7.06l-14.59-8.42c-2.25-1.3-4.08-.24-4.08,2.35Z"/><path class="cls-86" d="M148.51,208.52a4.76,4.76,0,0,0,2.15,3.71l7.66,4.42c1.18.68,2.15.13,2.15-1.23v-8.86a4.76,4.76,0,0,0-2.15-3.71l-7.66-4.42c-1.18-.68-2.15-.13-2.15,1.23Z"/><path class="cls-87" d="M45.47,147.22a4.75,4.75,0,0,0,2.14,3.71l7.66,4.42c1.18.68,2.14.13,2.14-1.23v-8.85a4.75,4.75,0,0,0-2.14-3.71l-7.66-4.43c-1.18-.68-2.14-.12-2.14,1.24Z"/><path class="cls-88" d="M153,82.57a4.76,4.76,0,0,0,2.15,3.71l7.66,4.43c1.18.68,2.14.12,2.14-1.24V80.62a4.75,4.75,0,0,0-2.14-3.71l-7.66-4.42c-1.18-.68-2.15-.13-2.15,1.23Z"/><path class="cls-89" d="M206.27,65.26A4.75,4.75,0,0,0,208.41,69l7.67,4.43c1.17.68,2.14.12,2.14-1.24V63.31a4.75,4.75,0,0,0-2.14-3.71l-7.67-4.43c-1.18-.68-2.14-.12-2.14,1.24Z"/><path class="cls-90" d="M382,147.22a4.77,4.77,0,0,0,2.14,3.71l7.67,4.42c1.18.68,2.14.13,2.14-1.23v-8.85a4.75,4.75,0,0,0-2.14-3.71l-7.67-4.43c-1.17-.68-2.14-.12-2.14,1.24Z"/><path class="cls-91" d="M428,146.2a4.75,4.75,0,0,0,2.14,3.71l7.66,4.42c1.18.68,2.14.13,2.14-1.23v-8.85a4.75,4.75,0,0,0-2.14-3.71l-7.66-4.43c-1.18-.68-2.14-.12-2.14,1.24Z"/><path class="cls-92" d="M393.65,104.89a4.73,4.73,0,0,0,2.14,3.7l7.66,4.43c1.18.68,2.15.12,2.15-1.24v-8.85a4.76,4.76,0,0,0-2.15-3.71l-7.66-4.42c-1.18-.68-2.14-.13-2.14,1.23Z"/><path class="cls-93" d="M326.94,207.15a4.75,4.75,0,0,0,2.14,3.71l7.66,4.42c1.18.68,2.15.13,2.15-1.23V205.2a4.76,4.76,0,0,0-2.15-3.71l-7.66-4.43c-1.18-.68-2.14-.12-2.14,1.24Z"/><path class="cls-94" d="M465.68,241.08a5,5,0,0,0,2.25,3.89l8,4.65c1.24.71,2.25.13,2.25-1.3V239a5,5,0,0,0-2.25-3.89l-8-4.64c-1.24-.72-2.25-.13-2.25,1.3Z"/><path class="cls-95" d="M28.69,211.61a9,9,0,0,0,4.08,7.06l14.59,8.42c2.25,1.3,4.08.24,4.08-2.35V207.89a9,9,0,0,0-4.08-7.06l-14.59-8.42c-2.24-1.3-4.08-.24-4.08,2.35Z"/><path class="cls-96" d="M184.11,95.43a9.08,9.08,0,0,0,4.08,7.07l14.59,8.42c2.24,1.29,4.08.24,4.08-2.35V91.72a9,9,0,0,0-4.08-7.06l-14.59-8.43c-2.24-1.29-4.08-.23-4.08,2.36Z"/><path class="cls-97" d="M460.58,323.15a9.07,9.07,0,0,0,4.07,7.07l14.59,8.42c2.25,1.29,4.08.24,4.08-2.36V319.44a9,9,0,0,0-4.08-7.06L464.65,304c-2.24-1.29-4.07-.23-4.07,2.36Z"/><path class="cls-98" d="M391.16,430.46a9,9,0,0,0,4.08,7.06L409.83,446c2.24,1.29,4.07.23,4.07-2.36V426.75a9.07,9.07,0,0,0-4.07-7.07l-14.59-8.42c-2.25-1.3-4.08-.24-4.08,2.35Z"/><path class="cls-99" d="M406.23,188.41a9,9,0,0,0,4.08,7.07l14.59,8.42c2.24,1.29,4.08.24,4.08-2.35V184.7a9,9,0,0,0-4.08-7.06l-14.59-8.43c-2.25-1.29-4.08-.23-4.08,2.36Z"/><path class="cls-100" d="M292.92,172.48a9.06,9.06,0,0,0,4.08,7.06L311.59,188c2.24,1.3,4.08.24,4.08-2.35V168.76a9,9,0,0,0-4.08-7.06L297,153.27c-2.24-1.29-4.08-.23-4.08,2.36Z"/><path class="cls-101" d="M347.82,101.35a9,9,0,0,0,4.08,7.06l14.59,8.43c2.24,1.29,4.08.23,4.08-2.36V97.64a9.08,9.08,0,0,0-4.08-7.07L351.9,82.15c-2.25-1.29-4.08-.24-4.08,2.35Z"/><path class="cls-102" d="M256.82,83.46a9.06,9.06,0,0,0,4.07,7.06l14.59,8.42c2.25,1.3,4.08.24,4.08-2.35V79.74a9,9,0,0,0-4.08-7.06l-14.59-8.43c-2.24-1.29-4.07-.23-4.07,2.36Z"/><path class="cls-103" d="M404.9,249.48a15.23,15.23,0,0,0,6.88,11.91l24.61,14.21c3.78,2.19,6.87.4,6.87-4V243.21a15.24,15.24,0,0,0-6.87-11.91l-24.61-14.21c-3.79-2.18-6.88-.4-6.88,4Z"/><path class="cls-104" d="M443.26,271.63V243.21a15.24,15.24,0,0,0-6.87-11.91l-24.61-14.21a5.14,5.14,0,0,0-4.39-.69h0l4.15-2.55c1.25-.79,3-.72,5,.41l24.61,14.2A15.26,15.26,0,0,1,448,240.38v28.41c0,2.24-.81,3.81-2.12,4.5L441.33,276h0C442.52,275.27,443.26,273.76,443.26,271.63Z"/><path class="cls-74" d="M417.33,247l2.27,2.36c-.35,1.64-.92,2.67-1.73,3.1a3.17,3.17,0,0,1-3.08-.44,9.73,9.73,0,0,1-3.8-4.49,16.49,16.49,0,0,1-1.48-7.12c0-2.81.49-4.7,1.49-5.68s2.31-1,3.93-.06a9,9,0,0,1,3.46,3.82,13.88,13.88,0,0,1,1.18,3.79l-2.32-.53a7,7,0,0,0-.85-2.56,4.46,4.46,0,0,0-1.59-1.68,1.52,1.52,0,0,0-2.09.14c-.53.59-.8,1.89-.8,3.89a12.8,12.8,0,0,0,.79,5,5.25,5.25,0,0,0,2.05,2.55,1.4,1.4,0,0,0,1.61.06A3.29,3.29,0,0,0,417.33,247Z"/><path class="cls-74" d="M424.14,254.67v-4.38l-3-1.75v-3l3,1.75v-4.38l2,1.17v4.38l3,1.76v3l-3-1.76v4.38Z"/><path class="cls-74" d="M433.59,260.13v-4.38l-3-1.75v-3l3,1.76v-4.38l2,1.16v4.38l3,1.76v3l-3-1.75v4.38Z"/><path class="cls-105" d="M346.88,179.12A15.23,15.23,0,0,0,353.76,191l24.61,14.21c3.78,2.18,6.88.4,6.88-4V172.85a15.25,15.25,0,0,0-6.88-11.91l-24.61-14.21c-3.79-2.18-6.88-.4-6.88,4Z"/><path class="cls-106" d="M385.25,201.27V172.85a15.25,15.25,0,0,0-6.88-11.91l-24.61-14.21a5.14,5.14,0,0,0-4.39-.69h0l4.15-2.55c1.25-.79,3-.72,5,.41l24.61,14.2A15.26,15.26,0,0,1,390,170v28.42c0,2.23-.81,3.79-2.12,4.49l-4.55,2.73h0C384.51,204.91,385.25,203.4,385.25,201.27Z"/><path class="cls-74" d="M374.64,178.59l-1.34-.78a2.73,2.73,0,0,1-1.16-1.31c-.1-.41-.16-1.67.21-1.89l.95-.54c.38-.22.38-.93,0-1.59l-1.56-2.71c-.38-.65-1-1-1.38-.79l-.94.55a1,1,0,0,1-1.21-.2,5.32,5.32,0,0,1-1.09-2.22v-1.55a2.15,2.15,0,0,0-1-1.68l-2.22-1.28c-.53-.3-1,0-1,.56v1.55c0,.62-.25,1.07-.55,1a3.42,3.42,0,0,1-1.74-1.25l-.95-1.64c-.37-.65-1-1-1.37-.79l-1.57.91c-.37.21-.37.92,0,1.58l.95,1.64a2.42,2.42,0,0,1,.44,1.64c-.14.25-.85.77-1.39.46l-1.34-.78c-.53-.3-1-.05-1,.56v2.56a2.15,2.15,0,0,0,1,1.68l1.34.77a2.63,2.63,0,0,1,1.16,1.31c.11.41.17,1.67-.21,1.89l-.95.54c-.37.22-.37.93,0,1.59l1.57,2.71c.38.65,1,1,1.37.79l.95-.55a1,1,0,0,1,1.2.2,5.32,5.32,0,0,1,1.09,2.22v1.55a2.16,2.16,0,0,0,1,1.68l2.21,1.28c.54.31,1,.06,1-.56v-1.55c0-.61.25-1.07.55-1a3.46,3.46,0,0,1,1.75,1.25l.94,1.64c.38.65,1,1,1.38.79l1.56-.9c.38-.22.38-.93,0-1.58l-.95-1.65a2.4,2.4,0,0,1-.43-1.64c.14-.25.85-.76,1.38-.46l1.34.78c.54.3,1,.06,1-.56v-2.56A2.1,2.1,0,0,0,374.64,178.59ZM365.05,181a10.73,10.73,0,0,1-4.85-8.4c0-3.09,2.17-4.34,4.85-2.8a10.75,10.75,0,0,1,4.85,8.4C369.9,181.33,367.72,182.58,365.05,181Z"/><path class="cls-107" d="M397.13,394.35A15.23,15.23,0,0,0,404,406.26l24.61,14.21c3.78,2.19,6.88.4,6.88-4V388.08a15.29,15.29,0,0,0-6.88-11.91L404,362c-3.79-2.18-6.88-.39-6.88,4Z"/><path class="cls-108" d="M435.5,416.5V388.08a15.29,15.29,0,0,0-6.88-11.91L404,362a5.14,5.14,0,0,0-4.39-.69h0l4.15-2.54c1.25-.8,3-.73,5,.4l24.61,14.21a15.23,15.23,0,0,1,6.88,11.91v28.42c0,2.24-.81,3.8-2.12,4.49l-4.55,2.73h0C434.76,420.14,435.5,418.63,435.5,416.5Z"/><path class="cls-74" d="M425.27,385.38,423.91,383l-3.13,1.81a23.56,23.56,0,0,1,1.53,2.26Z"/><path class="cls-74" d="M410.89,379.13l-3.13-5.42-1.36.78,3,5.14A4.32,4.32,0,0,1,410.89,379.13Z"/><path class="cls-74" d="M416.8,381v-5.43l-1.92-1.11v5.43c.31.15.63.25,1,.44S416.48,380.73,416.8,381Z"/><path class="cls-74" d="M403.46,383.23l3.22,1.86a9.09,9.09,0,0,1,.31-2l-3.53-2Z"/><path class="cls-74" d="M424.68,393.26a14.35,14.35,0,0,1,.31,2.4l3.23,1.86V395.3Z"/><path class="cls-74" d="M415.84,382.82c-3.87-2.24-7-.43-7,4a17.67,17.67,0,0,0,1.85,6.54c1,2.25,2.2,3.64,2.2,5.6v4.17a3.24,3.24,0,0,0,1.46,2.53l3,1.74c.8.46,1.46.08,1.46-.84v-4.18c0-2,1.25-1.92,2.2-3.05a6.3,6.3,0,0,0,1.85-4.41A15.49,15.49,0,0,0,415.84,382.82Zm3.78,11.64s.87-3.28-3.22-9.91a13.71,13.71,0,0,1,5.36,11.15Z"/><path class="cls-109" d="M76.07,123.85A15.24,15.24,0,0,0,83,135.76L107.56,150c3.78,2.18,6.87.39,6.87-4V117.58a15.24,15.24,0,0,0-6.87-11.91L83,91.46c-3.79-2.19-6.88-.4-6.88,4Z"/><path class="cls-110" d="M114.43,146V117.58a15.24,15.24,0,0,0-6.87-11.91L83,91.46a5.19,5.19,0,0,0-4.39-.7h0l4.15-2.54c1.25-.79,3-.72,5,.4l24.61,14.21a15.27,15.27,0,0,1,6.88,11.91v28.42c0,2.24-.82,3.8-2.12,4.5l-4.55,2.72h0C113.69,149.64,114.43,148.13,114.43,146Z"/><path class="cls-74" d="M104.76,116.36c-3.49-6-9.12-9.29-12.6-7.28-3.26,1.88-3.43,7.72-.57,13.41l-1.49.85-.63-1.08-6.93,4,2.53,4.38,6.93-4-.63-1.09,1.49-.86c3.5,5.31,8.63,8.09,11.89,6.21C108.23,128.89,108.23,122.38,104.76,116.36Zm-1.62,11.74c-2.59,1.5-6.78-.92-9.37-5.4s-2.59-9.33,0-10.83,6.78.93,9.37,5.42S105.72,126.61,103.14,128.1Z"/></g></g></g></svg>